%TF.GenerationSoftware,KiCad,Pcbnew,7.0.9*%
%TF.CreationDate,2024-04-15T16:09:07-07:00*%
%TF.ProjectId,CANBUSswitch,43414e42-5553-4737-9769-7463682e6b69,rev?*%
%TF.SameCoordinates,Original*%
%TF.FileFunction,Legend,Top*%
%TF.FilePolarity,Positive*%
%FSLAX46Y46*%
G04 Gerber Fmt 4.6, Leading zero omitted, Abs format (unit mm)*
G04 Created by KiCad (PCBNEW 7.0.9) date 2024-04-15 16:09:07*
%MOMM*%
%LPD*%
G01*
G04 APERTURE LIST*
%ADD10C,0.300000*%
%ADD11C,0.150000*%
%ADD12C,0.100000*%
G04 APERTURE END LIST*
D10*
X184563000Y-42799000D02*
X181610000Y-42799000D01*
X184563000Y-38989000D02*
X184563000Y-42799000D01*
X198596000Y-42672000D02*
X198596000Y-38862000D01*
X201549000Y-42672000D02*
X198596000Y-42672000D01*
D11*
X181610000Y-36576000D02*
X184658000Y-36576000D01*
X184658000Y-38862000D01*
X181610000Y-38862000D01*
X181610000Y-36576000D01*
G36*
X181610000Y-36576000D02*
G01*
X184658000Y-36576000D01*
X184658000Y-38862000D01*
X181610000Y-38862000D01*
X181610000Y-36576000D01*
G37*
X198501000Y-36576000D02*
X201549000Y-36576000D01*
X201549000Y-38862000D01*
X198501000Y-38862000D01*
X198501000Y-36576000D01*
G36*
X198501000Y-36576000D02*
G01*
X201549000Y-36576000D01*
X201549000Y-38862000D01*
X198501000Y-38862000D01*
X198501000Y-36576000D01*
G37*
D10*
X181610000Y-42799000D02*
X181610000Y-38989000D01*
X201549000Y-38862000D02*
X201549000Y-42672000D01*
D11*
X187574751Y-39503409D02*
X187717608Y-39551028D01*
X187717608Y-39551028D02*
X187765227Y-39598647D01*
X187765227Y-39598647D02*
X187812846Y-39693885D01*
X187812846Y-39693885D02*
X187812846Y-39836742D01*
X187812846Y-39836742D02*
X187765227Y-39931980D01*
X187765227Y-39931980D02*
X187717608Y-39979600D01*
X187717608Y-39979600D02*
X187622370Y-40027219D01*
X187622370Y-40027219D02*
X187241418Y-40027219D01*
X187241418Y-40027219D02*
X187241418Y-39027219D01*
X187241418Y-39027219D02*
X187574751Y-39027219D01*
X187574751Y-39027219D02*
X187669989Y-39074838D01*
X187669989Y-39074838D02*
X187717608Y-39122457D01*
X187717608Y-39122457D02*
X187765227Y-39217695D01*
X187765227Y-39217695D02*
X187765227Y-39312933D01*
X187765227Y-39312933D02*
X187717608Y-39408171D01*
X187717608Y-39408171D02*
X187669989Y-39455790D01*
X187669989Y-39455790D02*
X187574751Y-39503409D01*
X187574751Y-39503409D02*
X187241418Y-39503409D01*
X188241418Y-40027219D02*
X188241418Y-39360552D01*
X188241418Y-39551028D02*
X188289037Y-39455790D01*
X188289037Y-39455790D02*
X188336656Y-39408171D01*
X188336656Y-39408171D02*
X188431894Y-39360552D01*
X188431894Y-39360552D02*
X188527132Y-39360552D01*
X189241418Y-39979600D02*
X189146180Y-40027219D01*
X189146180Y-40027219D02*
X188955704Y-40027219D01*
X188955704Y-40027219D02*
X188860466Y-39979600D01*
X188860466Y-39979600D02*
X188812847Y-39884361D01*
X188812847Y-39884361D02*
X188812847Y-39503409D01*
X188812847Y-39503409D02*
X188860466Y-39408171D01*
X188860466Y-39408171D02*
X188955704Y-39360552D01*
X188955704Y-39360552D02*
X189146180Y-39360552D01*
X189146180Y-39360552D02*
X189241418Y-39408171D01*
X189241418Y-39408171D02*
X189289037Y-39503409D01*
X189289037Y-39503409D02*
X189289037Y-39598647D01*
X189289037Y-39598647D02*
X188812847Y-39693885D01*
X189717609Y-39360552D02*
X189717609Y-40027219D01*
X189717609Y-39455790D02*
X189765228Y-39408171D01*
X189765228Y-39408171D02*
X189860466Y-39360552D01*
X189860466Y-39360552D02*
X190003323Y-39360552D01*
X190003323Y-39360552D02*
X190098561Y-39408171D01*
X190098561Y-39408171D02*
X190146180Y-39503409D01*
X190146180Y-39503409D02*
X190146180Y-40027219D01*
X191050942Y-40027219D02*
X191050942Y-39027219D01*
X191050942Y-39979600D02*
X190955704Y-40027219D01*
X190955704Y-40027219D02*
X190765228Y-40027219D01*
X190765228Y-40027219D02*
X190669990Y-39979600D01*
X190669990Y-39979600D02*
X190622371Y-39931980D01*
X190622371Y-39931980D02*
X190574752Y-39836742D01*
X190574752Y-39836742D02*
X190574752Y-39551028D01*
X190574752Y-39551028D02*
X190622371Y-39455790D01*
X190622371Y-39455790D02*
X190669990Y-39408171D01*
X190669990Y-39408171D02*
X190765228Y-39360552D01*
X190765228Y-39360552D02*
X190955704Y-39360552D01*
X190955704Y-39360552D02*
X191050942Y-39408171D01*
X191955704Y-40027219D02*
X191955704Y-39503409D01*
X191955704Y-39503409D02*
X191908085Y-39408171D01*
X191908085Y-39408171D02*
X191812847Y-39360552D01*
X191812847Y-39360552D02*
X191622371Y-39360552D01*
X191622371Y-39360552D02*
X191527133Y-39408171D01*
X191955704Y-39979600D02*
X191860466Y-40027219D01*
X191860466Y-40027219D02*
X191622371Y-40027219D01*
X191622371Y-40027219D02*
X191527133Y-39979600D01*
X191527133Y-39979600D02*
X191479514Y-39884361D01*
X191479514Y-39884361D02*
X191479514Y-39789123D01*
X191479514Y-39789123D02*
X191527133Y-39693885D01*
X191527133Y-39693885D02*
X191622371Y-39646266D01*
X191622371Y-39646266D02*
X191860466Y-39646266D01*
X191860466Y-39646266D02*
X191955704Y-39598647D01*
X192431895Y-39360552D02*
X192431895Y-40027219D01*
X192431895Y-39455790D02*
X192479514Y-39408171D01*
X192479514Y-39408171D02*
X192574752Y-39360552D01*
X192574752Y-39360552D02*
X192717609Y-39360552D01*
X192717609Y-39360552D02*
X192812847Y-39408171D01*
X192812847Y-39408171D02*
X192860466Y-39503409D01*
X192860466Y-39503409D02*
X192860466Y-40027219D01*
X194574752Y-40027219D02*
X194098562Y-40027219D01*
X194098562Y-40027219D02*
X194098562Y-39027219D01*
X195289038Y-39979600D02*
X195193800Y-40027219D01*
X195193800Y-40027219D02*
X195003324Y-40027219D01*
X195003324Y-40027219D02*
X194908086Y-39979600D01*
X194908086Y-39979600D02*
X194860467Y-39884361D01*
X194860467Y-39884361D02*
X194860467Y-39503409D01*
X194860467Y-39503409D02*
X194908086Y-39408171D01*
X194908086Y-39408171D02*
X195003324Y-39360552D01*
X195003324Y-39360552D02*
X195193800Y-39360552D01*
X195193800Y-39360552D02*
X195289038Y-39408171D01*
X195289038Y-39408171D02*
X195336657Y-39503409D01*
X195336657Y-39503409D02*
X195336657Y-39598647D01*
X195336657Y-39598647D02*
X194860467Y-39693885D01*
X196146181Y-39979600D02*
X196050943Y-40027219D01*
X196050943Y-40027219D02*
X195860467Y-40027219D01*
X195860467Y-40027219D02*
X195765229Y-39979600D01*
X195765229Y-39979600D02*
X195717610Y-39884361D01*
X195717610Y-39884361D02*
X195717610Y-39503409D01*
X195717610Y-39503409D02*
X195765229Y-39408171D01*
X195765229Y-39408171D02*
X195860467Y-39360552D01*
X195860467Y-39360552D02*
X196050943Y-39360552D01*
X196050943Y-39360552D02*
X196146181Y-39408171D01*
X196146181Y-39408171D02*
X196193800Y-39503409D01*
X196193800Y-39503409D02*
X196193800Y-39598647D01*
X196193800Y-39598647D02*
X195717610Y-39693885D01*
D12*
%TO.C,SW1*%
X184596000Y-36624000D02*
X198596000Y-36624000D01*
X184596000Y-42624000D02*
X184596000Y-36624000D01*
X198596000Y-36624000D02*
X198596000Y-42624000D01*
X198596000Y-42624000D02*
X184596000Y-42624000D01*
%TD*%
M02*
