%TF.GenerationSoftware,KiCad,Pcbnew,7.0.9*%
%TF.CreationDate,2024-04-15T16:09:05-07:00*%
%TF.ProjectId,CANBUSswitch,43414e42-5553-4737-9769-7463682e6b69,rev?*%
%TF.SameCoordinates,Original*%
%TF.FileFunction,Drillmap*%
%TF.FilePolarity,Positive*%
%FSLAX45Y45*%
G04 Gerber Fmt 4.5, Leading zero omitted, Abs format (unit mm)*
G04 Created by KiCad (PCBNEW 7.0.9) date 2024-04-15 16:09:05*
%MOMM*%
%LPD*%
G01*
G04 APERTURE LIST*
%ADD10C,0.100000*%
%ADD11C,0.200000*%
G04 APERTURE END LIST*
D10*
X18161000Y-3644900D02*
X20154900Y-3644900D01*
X20154900Y-3733800D02*
G75*
G03*
X20154900Y-3835400I0J-50800D01*
G01*
X20154900Y-3644900D02*
X20154900Y-3733800D01*
X20154900Y-4279900D02*
X18669000Y-4279900D01*
X18161000Y-4279900D02*
X18161000Y-3835400D01*
X18669000Y-4279900D02*
X18161000Y-4279900D01*
X18161000Y-3835400D02*
G75*
G03*
X18161000Y-3733800I0J50800D01*
G01*
X18161000Y-3733800D02*
X18161000Y-3644900D01*
X20154900Y-3835400D02*
X20154900Y-4279900D01*
D11*
X18416777Y-4596384D02*
X18416777Y-4396384D01*
X18416777Y-4396384D02*
X18464396Y-4396384D01*
X18464396Y-4396384D02*
X18492967Y-4405908D01*
X18492967Y-4405908D02*
X18512015Y-4424955D01*
X18512015Y-4424955D02*
X18521539Y-4444003D01*
X18521539Y-4444003D02*
X18531063Y-4482098D01*
X18531063Y-4482098D02*
X18531063Y-4510670D01*
X18531063Y-4510670D02*
X18521539Y-4548765D01*
X18521539Y-4548765D02*
X18512015Y-4567812D01*
X18512015Y-4567812D02*
X18492967Y-4586860D01*
X18492967Y-4586860D02*
X18464396Y-4596384D01*
X18464396Y-4596384D02*
X18416777Y-4596384D01*
X18616777Y-4596384D02*
X18616777Y-4463050D01*
X18616777Y-4501146D02*
X18626301Y-4482098D01*
X18626301Y-4482098D02*
X18635824Y-4472574D01*
X18635824Y-4472574D02*
X18654872Y-4463050D01*
X18654872Y-4463050D02*
X18673920Y-4463050D01*
X18740586Y-4596384D02*
X18740586Y-4463050D01*
X18740586Y-4396384D02*
X18731063Y-4405908D01*
X18731063Y-4405908D02*
X18740586Y-4415431D01*
X18740586Y-4415431D02*
X18750110Y-4405908D01*
X18750110Y-4405908D02*
X18740586Y-4396384D01*
X18740586Y-4396384D02*
X18740586Y-4415431D01*
X18864396Y-4596384D02*
X18845348Y-4586860D01*
X18845348Y-4586860D02*
X18835824Y-4567812D01*
X18835824Y-4567812D02*
X18835824Y-4396384D01*
X18969158Y-4596384D02*
X18950110Y-4586860D01*
X18950110Y-4586860D02*
X18940586Y-4567812D01*
X18940586Y-4567812D02*
X18940586Y-4396384D01*
X19197729Y-4596384D02*
X19197729Y-4396384D01*
X19197729Y-4396384D02*
X19264396Y-4539241D01*
X19264396Y-4539241D02*
X19331063Y-4396384D01*
X19331063Y-4396384D02*
X19331063Y-4596384D01*
X19512015Y-4596384D02*
X19512015Y-4491622D01*
X19512015Y-4491622D02*
X19502491Y-4472574D01*
X19502491Y-4472574D02*
X19483444Y-4463050D01*
X19483444Y-4463050D02*
X19445348Y-4463050D01*
X19445348Y-4463050D02*
X19426301Y-4472574D01*
X19512015Y-4586860D02*
X19492967Y-4596384D01*
X19492967Y-4596384D02*
X19445348Y-4596384D01*
X19445348Y-4596384D02*
X19426301Y-4586860D01*
X19426301Y-4586860D02*
X19416777Y-4567812D01*
X19416777Y-4567812D02*
X19416777Y-4548765D01*
X19416777Y-4548765D02*
X19426301Y-4529717D01*
X19426301Y-4529717D02*
X19445348Y-4520193D01*
X19445348Y-4520193D02*
X19492967Y-4520193D01*
X19492967Y-4520193D02*
X19512015Y-4510670D01*
X19607253Y-4463050D02*
X19607253Y-4663050D01*
X19607253Y-4472574D02*
X19626301Y-4463050D01*
X19626301Y-4463050D02*
X19664396Y-4463050D01*
X19664396Y-4463050D02*
X19683444Y-4472574D01*
X19683444Y-4472574D02*
X19692967Y-4482098D01*
X19692967Y-4482098D02*
X19702491Y-4501146D01*
X19702491Y-4501146D02*
X19702491Y-4558289D01*
X19702491Y-4558289D02*
X19692967Y-4577336D01*
X19692967Y-4577336D02*
X19683444Y-4586860D01*
X19683444Y-4586860D02*
X19664396Y-4596384D01*
X19664396Y-4596384D02*
X19626301Y-4596384D01*
X19626301Y-4596384D02*
X19607253Y-4586860D01*
X19788205Y-4577336D02*
X19797729Y-4586860D01*
X19797729Y-4586860D02*
X19788205Y-4596384D01*
X19788205Y-4596384D02*
X19778682Y-4586860D01*
X19778682Y-4586860D02*
X19788205Y-4577336D01*
X19788205Y-4577336D02*
X19788205Y-4596384D01*
X19788205Y-4472574D02*
X19797729Y-4482098D01*
X19797729Y-4482098D02*
X19788205Y-4491622D01*
X19788205Y-4491622D02*
X19778682Y-4482098D01*
X19778682Y-4482098D02*
X19788205Y-4472574D01*
X19788205Y-4472574D02*
X19788205Y-4491622D01*
M02*
