%TF.GenerationSoftware,KiCad,Pcbnew,7.0.9*%
%TF.CreationDate,2024-04-15T16:09:05-07:00*%
%TF.ProjectId,CANBUSswitch,43414e42-5553-4737-9769-7463682e6b69,rev?*%
%TF.SameCoordinates,Original*%
%TF.FileFunction,Drillmap*%
%TF.FilePolarity,Positive*%
%FSLAX45Y45*%
G04 Gerber Fmt 4.5, Leading zero omitted, Abs format (unit mm)*
G04 Created by KiCad (PCBNEW 7.0.9) date 2024-04-15 16:09:05*
%MOMM*%
%LPD*%
G01*
G04 APERTURE LIST*
%ADD10C,0.100000*%
%ADD11C,0.200000*%
G04 APERTURE END LIST*
D10*
X18161000Y-3644900D02*
X20154900Y-3644900D01*
X20154900Y-3733800D02*
G75*
G03*
X20154900Y-3835400I0J-50800D01*
G01*
X20154900Y-3644900D02*
X20154900Y-3733800D01*
X20154900Y-4279900D02*
X18669000Y-4279900D01*
X18161000Y-4279900D02*
X18161000Y-3835400D01*
X18669000Y-4279900D02*
X18161000Y-4279900D01*
X18161000Y-3835400D02*
G75*
G03*
X18161000Y-3733800I0J50800D01*
G01*
X18161000Y-3733800D02*
X18161000Y-3644900D01*
X20154900Y-3835400D02*
X20154900Y-4279900D01*
D11*
D10*
X18619600Y-3797400D02*
X18699600Y-3877400D01*
X18699600Y-3797400D02*
X18619600Y-3877400D01*
X18619600Y-4047400D02*
X18699600Y-4127400D01*
X18699600Y-4047400D02*
X18619600Y-4127400D01*
X18819600Y-3797400D02*
X18899600Y-3877400D01*
X18899600Y-3797400D02*
X18819600Y-3877400D01*
X18819600Y-4047400D02*
X18899600Y-4127400D01*
X18899600Y-4047400D02*
X18819600Y-4127400D01*
X19019600Y-3797400D02*
X19099600Y-3877400D01*
X19099600Y-3797400D02*
X19019600Y-3877400D01*
X19019600Y-4047400D02*
X19099600Y-4127400D01*
X19099600Y-4047400D02*
X19019600Y-4127400D01*
X19219600Y-3797400D02*
X19299600Y-3877400D01*
X19299600Y-3797400D02*
X19219600Y-3877400D01*
X19219600Y-4047400D02*
X19299600Y-4127400D01*
X19299600Y-4047400D02*
X19219600Y-4127400D01*
X19419600Y-3797400D02*
X19499600Y-3877400D01*
X19499600Y-3797400D02*
X19419600Y-3877400D01*
X19419600Y-4047400D02*
X19499600Y-4127400D01*
X19499600Y-4047400D02*
X19419600Y-4127400D01*
X19619600Y-3797400D02*
X19699600Y-3877400D01*
X19699600Y-3797400D02*
X19619600Y-3877400D01*
X19619600Y-4047400D02*
X19699600Y-4127400D01*
X19699600Y-4047400D02*
X19619600Y-4127400D01*
D11*
X18416777Y-4596384D02*
X18416777Y-4396384D01*
X18416777Y-4396384D02*
X18464396Y-4396384D01*
X18464396Y-4396384D02*
X18492967Y-4405908D01*
X18492967Y-4405908D02*
X18512015Y-4424955D01*
X18512015Y-4424955D02*
X18521539Y-4444003D01*
X18521539Y-4444003D02*
X18531063Y-4482098D01*
X18531063Y-4482098D02*
X18531063Y-4510670D01*
X18531063Y-4510670D02*
X18521539Y-4548765D01*
X18521539Y-4548765D02*
X18512015Y-4567812D01*
X18512015Y-4567812D02*
X18492967Y-4586860D01*
X18492967Y-4586860D02*
X18464396Y-4596384D01*
X18464396Y-4596384D02*
X18416777Y-4596384D01*
X18616777Y-4596384D02*
X18616777Y-4463050D01*
X18616777Y-4501146D02*
X18626301Y-4482098D01*
X18626301Y-4482098D02*
X18635824Y-4472574D01*
X18635824Y-4472574D02*
X18654872Y-4463050D01*
X18654872Y-4463050D02*
X18673920Y-4463050D01*
X18740586Y-4596384D02*
X18740586Y-4463050D01*
X18740586Y-4396384D02*
X18731063Y-4405908D01*
X18731063Y-4405908D02*
X18740586Y-4415431D01*
X18740586Y-4415431D02*
X18750110Y-4405908D01*
X18750110Y-4405908D02*
X18740586Y-4396384D01*
X18740586Y-4396384D02*
X18740586Y-4415431D01*
X18864396Y-4596384D02*
X18845348Y-4586860D01*
X18845348Y-4586860D02*
X18835824Y-4567812D01*
X18835824Y-4567812D02*
X18835824Y-4396384D01*
X18969158Y-4596384D02*
X18950110Y-4586860D01*
X18950110Y-4586860D02*
X18940586Y-4567812D01*
X18940586Y-4567812D02*
X18940586Y-4396384D01*
X19197729Y-4596384D02*
X19197729Y-4396384D01*
X19197729Y-4396384D02*
X19264396Y-4539241D01*
X19264396Y-4539241D02*
X19331063Y-4396384D01*
X19331063Y-4396384D02*
X19331063Y-4596384D01*
X19512015Y-4596384D02*
X19512015Y-4491622D01*
X19512015Y-4491622D02*
X19502491Y-4472574D01*
X19502491Y-4472574D02*
X19483444Y-4463050D01*
X19483444Y-4463050D02*
X19445348Y-4463050D01*
X19445348Y-4463050D02*
X19426301Y-4472574D01*
X19512015Y-4586860D02*
X19492967Y-4596384D01*
X19492967Y-4596384D02*
X19445348Y-4596384D01*
X19445348Y-4596384D02*
X19426301Y-4586860D01*
X19426301Y-4586860D02*
X19416777Y-4567812D01*
X19416777Y-4567812D02*
X19416777Y-4548765D01*
X19416777Y-4548765D02*
X19426301Y-4529717D01*
X19426301Y-4529717D02*
X19445348Y-4520193D01*
X19445348Y-4520193D02*
X19492967Y-4520193D01*
X19492967Y-4520193D02*
X19512015Y-4510670D01*
X19607253Y-4463050D02*
X19607253Y-4663050D01*
X19607253Y-4472574D02*
X19626301Y-4463050D01*
X19626301Y-4463050D02*
X19664396Y-4463050D01*
X19664396Y-4463050D02*
X19683444Y-4472574D01*
X19683444Y-4472574D02*
X19692967Y-4482098D01*
X19692967Y-4482098D02*
X19702491Y-4501146D01*
X19702491Y-4501146D02*
X19702491Y-4558289D01*
X19702491Y-4558289D02*
X19692967Y-4577336D01*
X19692967Y-4577336D02*
X19683444Y-4586860D01*
X19683444Y-4586860D02*
X19664396Y-4596384D01*
X19664396Y-4596384D02*
X19626301Y-4596384D01*
X19626301Y-4596384D02*
X19607253Y-4586860D01*
X19788205Y-4577336D02*
X19797729Y-4586860D01*
X19797729Y-4586860D02*
X19788205Y-4596384D01*
X19788205Y-4596384D02*
X19778682Y-4586860D01*
X19778682Y-4586860D02*
X19788205Y-4577336D01*
X19788205Y-4577336D02*
X19788205Y-4596384D01*
X19788205Y-4472574D02*
X19797729Y-4482098D01*
X19797729Y-4482098D02*
X19788205Y-4491622D01*
X19788205Y-4491622D02*
X19778682Y-4482098D01*
X19778682Y-4482098D02*
X19788205Y-4472574D01*
X19788205Y-4472574D02*
X19788205Y-4491622D01*
D10*
X18076000Y-4884900D02*
X18156000Y-4964900D01*
X18156000Y-4884900D02*
X18076000Y-4964900D01*
D11*
X18454872Y-4816384D02*
X18473920Y-4816384D01*
X18473920Y-4816384D02*
X18492967Y-4825908D01*
X18492967Y-4825908D02*
X18502491Y-4835431D01*
X18502491Y-4835431D02*
X18512015Y-4854479D01*
X18512015Y-4854479D02*
X18521539Y-4892574D01*
X18521539Y-4892574D02*
X18521539Y-4940193D01*
X18521539Y-4940193D02*
X18512015Y-4978289D01*
X18512015Y-4978289D02*
X18502491Y-4997336D01*
X18502491Y-4997336D02*
X18492967Y-5006860D01*
X18492967Y-5006860D02*
X18473920Y-5016384D01*
X18473920Y-5016384D02*
X18454872Y-5016384D01*
X18454872Y-5016384D02*
X18435824Y-5006860D01*
X18435824Y-5006860D02*
X18426301Y-4997336D01*
X18426301Y-4997336D02*
X18416777Y-4978289D01*
X18416777Y-4978289D02*
X18407253Y-4940193D01*
X18407253Y-4940193D02*
X18407253Y-4892574D01*
X18407253Y-4892574D02*
X18416777Y-4854479D01*
X18416777Y-4854479D02*
X18426301Y-4835431D01*
X18426301Y-4835431D02*
X18435824Y-4825908D01*
X18435824Y-4825908D02*
X18454872Y-4816384D01*
X18607253Y-4997336D02*
X18616777Y-5006860D01*
X18616777Y-5006860D02*
X18607253Y-5016384D01*
X18607253Y-5016384D02*
X18597729Y-5006860D01*
X18597729Y-5006860D02*
X18607253Y-4997336D01*
X18607253Y-4997336D02*
X18607253Y-5016384D01*
X18731063Y-4902098D02*
X18712015Y-4892574D01*
X18712015Y-4892574D02*
X18702491Y-4883050D01*
X18702491Y-4883050D02*
X18692967Y-4864003D01*
X18692967Y-4864003D02*
X18692967Y-4854479D01*
X18692967Y-4854479D02*
X18702491Y-4835431D01*
X18702491Y-4835431D02*
X18712015Y-4825908D01*
X18712015Y-4825908D02*
X18731063Y-4816384D01*
X18731063Y-4816384D02*
X18769158Y-4816384D01*
X18769158Y-4816384D02*
X18788205Y-4825908D01*
X18788205Y-4825908D02*
X18797729Y-4835431D01*
X18797729Y-4835431D02*
X18807253Y-4854479D01*
X18807253Y-4854479D02*
X18807253Y-4864003D01*
X18807253Y-4864003D02*
X18797729Y-4883050D01*
X18797729Y-4883050D02*
X18788205Y-4892574D01*
X18788205Y-4892574D02*
X18769158Y-4902098D01*
X18769158Y-4902098D02*
X18731063Y-4902098D01*
X18731063Y-4902098D02*
X18712015Y-4911622D01*
X18712015Y-4911622D02*
X18702491Y-4921146D01*
X18702491Y-4921146D02*
X18692967Y-4940193D01*
X18692967Y-4940193D02*
X18692967Y-4978289D01*
X18692967Y-4978289D02*
X18702491Y-4997336D01*
X18702491Y-4997336D02*
X18712015Y-5006860D01*
X18712015Y-5006860D02*
X18731063Y-5016384D01*
X18731063Y-5016384D02*
X18769158Y-5016384D01*
X18769158Y-5016384D02*
X18788205Y-5006860D01*
X18788205Y-5006860D02*
X18797729Y-4997336D01*
X18797729Y-4997336D02*
X18807253Y-4978289D01*
X18807253Y-4978289D02*
X18807253Y-4940193D01*
X18807253Y-4940193D02*
X18797729Y-4921146D01*
X18797729Y-4921146D02*
X18788205Y-4911622D01*
X18788205Y-4911622D02*
X18769158Y-4902098D01*
X18931063Y-4816384D02*
X18950110Y-4816384D01*
X18950110Y-4816384D02*
X18969158Y-4825908D01*
X18969158Y-4825908D02*
X18978682Y-4835431D01*
X18978682Y-4835431D02*
X18988205Y-4854479D01*
X18988205Y-4854479D02*
X18997729Y-4892574D01*
X18997729Y-4892574D02*
X18997729Y-4940193D01*
X18997729Y-4940193D02*
X18988205Y-4978289D01*
X18988205Y-4978289D02*
X18978682Y-4997336D01*
X18978682Y-4997336D02*
X18969158Y-5006860D01*
X18969158Y-5006860D02*
X18950110Y-5016384D01*
X18950110Y-5016384D02*
X18931063Y-5016384D01*
X18931063Y-5016384D02*
X18912015Y-5006860D01*
X18912015Y-5006860D02*
X18902491Y-4997336D01*
X18902491Y-4997336D02*
X18892967Y-4978289D01*
X18892967Y-4978289D02*
X18883444Y-4940193D01*
X18883444Y-4940193D02*
X18883444Y-4892574D01*
X18883444Y-4892574D02*
X18892967Y-4854479D01*
X18892967Y-4854479D02*
X18902491Y-4835431D01*
X18902491Y-4835431D02*
X18912015Y-4825908D01*
X18912015Y-4825908D02*
X18931063Y-4816384D01*
X19121539Y-4816384D02*
X19140586Y-4816384D01*
X19140586Y-4816384D02*
X19159634Y-4825908D01*
X19159634Y-4825908D02*
X19169158Y-4835431D01*
X19169158Y-4835431D02*
X19178682Y-4854479D01*
X19178682Y-4854479D02*
X19188205Y-4892574D01*
X19188205Y-4892574D02*
X19188205Y-4940193D01*
X19188205Y-4940193D02*
X19178682Y-4978289D01*
X19178682Y-4978289D02*
X19169158Y-4997336D01*
X19169158Y-4997336D02*
X19159634Y-5006860D01*
X19159634Y-5006860D02*
X19140586Y-5016384D01*
X19140586Y-5016384D02*
X19121539Y-5016384D01*
X19121539Y-5016384D02*
X19102491Y-5006860D01*
X19102491Y-5006860D02*
X19092967Y-4997336D01*
X19092967Y-4997336D02*
X19083444Y-4978289D01*
X19083444Y-4978289D02*
X19073920Y-4940193D01*
X19073920Y-4940193D02*
X19073920Y-4892574D01*
X19073920Y-4892574D02*
X19083444Y-4854479D01*
X19083444Y-4854479D02*
X19092967Y-4835431D01*
X19092967Y-4835431D02*
X19102491Y-4825908D01*
X19102491Y-4825908D02*
X19121539Y-4816384D01*
X19273920Y-5016384D02*
X19273920Y-4883050D01*
X19273920Y-4902098D02*
X19283444Y-4892574D01*
X19283444Y-4892574D02*
X19302491Y-4883050D01*
X19302491Y-4883050D02*
X19331063Y-4883050D01*
X19331063Y-4883050D02*
X19350110Y-4892574D01*
X19350110Y-4892574D02*
X19359634Y-4911622D01*
X19359634Y-4911622D02*
X19359634Y-5016384D01*
X19359634Y-4911622D02*
X19369158Y-4892574D01*
X19369158Y-4892574D02*
X19388205Y-4883050D01*
X19388205Y-4883050D02*
X19416777Y-4883050D01*
X19416777Y-4883050D02*
X19435825Y-4892574D01*
X19435825Y-4892574D02*
X19445348Y-4911622D01*
X19445348Y-4911622D02*
X19445348Y-5016384D01*
X19540586Y-5016384D02*
X19540586Y-4883050D01*
X19540586Y-4902098D02*
X19550110Y-4892574D01*
X19550110Y-4892574D02*
X19569158Y-4883050D01*
X19569158Y-4883050D02*
X19597729Y-4883050D01*
X19597729Y-4883050D02*
X19616777Y-4892574D01*
X19616777Y-4892574D02*
X19626301Y-4911622D01*
X19626301Y-4911622D02*
X19626301Y-5016384D01*
X19626301Y-4911622D02*
X19635825Y-4892574D01*
X19635825Y-4892574D02*
X19654872Y-4883050D01*
X19654872Y-4883050D02*
X19683444Y-4883050D01*
X19683444Y-4883050D02*
X19702491Y-4892574D01*
X19702491Y-4892574D02*
X19712015Y-4911622D01*
X19712015Y-4911622D02*
X19712015Y-5016384D01*
X20102491Y-4806860D02*
X19931063Y-5064003D01*
X20359634Y-4816384D02*
X20378682Y-4816384D01*
X20378682Y-4816384D02*
X20397729Y-4825908D01*
X20397729Y-4825908D02*
X20407253Y-4835431D01*
X20407253Y-4835431D02*
X20416777Y-4854479D01*
X20416777Y-4854479D02*
X20426301Y-4892574D01*
X20426301Y-4892574D02*
X20426301Y-4940193D01*
X20426301Y-4940193D02*
X20416777Y-4978289D01*
X20416777Y-4978289D02*
X20407253Y-4997336D01*
X20407253Y-4997336D02*
X20397729Y-5006860D01*
X20397729Y-5006860D02*
X20378682Y-5016384D01*
X20378682Y-5016384D02*
X20359634Y-5016384D01*
X20359634Y-5016384D02*
X20340587Y-5006860D01*
X20340587Y-5006860D02*
X20331063Y-4997336D01*
X20331063Y-4997336D02*
X20321539Y-4978289D01*
X20321539Y-4978289D02*
X20312015Y-4940193D01*
X20312015Y-4940193D02*
X20312015Y-4892574D01*
X20312015Y-4892574D02*
X20321539Y-4854479D01*
X20321539Y-4854479D02*
X20331063Y-4835431D01*
X20331063Y-4835431D02*
X20340587Y-4825908D01*
X20340587Y-4825908D02*
X20359634Y-4816384D01*
X20512015Y-4997336D02*
X20521539Y-5006860D01*
X20521539Y-5006860D02*
X20512015Y-5016384D01*
X20512015Y-5016384D02*
X20502491Y-5006860D01*
X20502491Y-5006860D02*
X20512015Y-4997336D01*
X20512015Y-4997336D02*
X20512015Y-5016384D01*
X20645348Y-4816384D02*
X20664396Y-4816384D01*
X20664396Y-4816384D02*
X20683444Y-4825908D01*
X20683444Y-4825908D02*
X20692968Y-4835431D01*
X20692968Y-4835431D02*
X20702491Y-4854479D01*
X20702491Y-4854479D02*
X20712015Y-4892574D01*
X20712015Y-4892574D02*
X20712015Y-4940193D01*
X20712015Y-4940193D02*
X20702491Y-4978289D01*
X20702491Y-4978289D02*
X20692968Y-4997336D01*
X20692968Y-4997336D02*
X20683444Y-5006860D01*
X20683444Y-5006860D02*
X20664396Y-5016384D01*
X20664396Y-5016384D02*
X20645348Y-5016384D01*
X20645348Y-5016384D02*
X20626301Y-5006860D01*
X20626301Y-5006860D02*
X20616777Y-4997336D01*
X20616777Y-4997336D02*
X20607253Y-4978289D01*
X20607253Y-4978289D02*
X20597729Y-4940193D01*
X20597729Y-4940193D02*
X20597729Y-4892574D01*
X20597729Y-4892574D02*
X20607253Y-4854479D01*
X20607253Y-4854479D02*
X20616777Y-4835431D01*
X20616777Y-4835431D02*
X20626301Y-4825908D01*
X20626301Y-4825908D02*
X20645348Y-4816384D01*
X20778682Y-4816384D02*
X20902491Y-4816384D01*
X20902491Y-4816384D02*
X20835825Y-4892574D01*
X20835825Y-4892574D02*
X20864396Y-4892574D01*
X20864396Y-4892574D02*
X20883444Y-4902098D01*
X20883444Y-4902098D02*
X20892968Y-4911622D01*
X20892968Y-4911622D02*
X20902491Y-4930670D01*
X20902491Y-4930670D02*
X20902491Y-4978289D01*
X20902491Y-4978289D02*
X20892968Y-4997336D01*
X20892968Y-4997336D02*
X20883444Y-5006860D01*
X20883444Y-5006860D02*
X20864396Y-5016384D01*
X20864396Y-5016384D02*
X20807253Y-5016384D01*
X20807253Y-5016384D02*
X20788206Y-5006860D01*
X20788206Y-5006860D02*
X20778682Y-4997336D01*
X21092968Y-5016384D02*
X20978682Y-5016384D01*
X21035825Y-5016384D02*
X21035825Y-4816384D01*
X21035825Y-4816384D02*
X21016777Y-4844955D01*
X21016777Y-4844955D02*
X20997729Y-4864003D01*
X20997729Y-4864003D02*
X20978682Y-4873527D01*
X21273920Y-4816384D02*
X21178682Y-4816384D01*
X21178682Y-4816384D02*
X21169158Y-4911622D01*
X21169158Y-4911622D02*
X21178682Y-4902098D01*
X21178682Y-4902098D02*
X21197729Y-4892574D01*
X21197729Y-4892574D02*
X21245349Y-4892574D01*
X21245349Y-4892574D02*
X21264396Y-4902098D01*
X21264396Y-4902098D02*
X21273920Y-4911622D01*
X21273920Y-4911622D02*
X21283444Y-4930670D01*
X21283444Y-4930670D02*
X21283444Y-4978289D01*
X21283444Y-4978289D02*
X21273920Y-4997336D01*
X21273920Y-4997336D02*
X21264396Y-5006860D01*
X21264396Y-5006860D02*
X21245349Y-5016384D01*
X21245349Y-5016384D02*
X21197729Y-5016384D01*
X21197729Y-5016384D02*
X21178682Y-5006860D01*
X21178682Y-5006860D02*
X21169158Y-4997336D01*
X21359634Y-4816384D02*
X21359634Y-4854479D01*
X21435825Y-4816384D02*
X21435825Y-4854479D01*
X21731063Y-5092574D02*
X21721539Y-5083050D01*
X21721539Y-5083050D02*
X21702491Y-5054479D01*
X21702491Y-5054479D02*
X21692968Y-5035431D01*
X21692968Y-5035431D02*
X21683444Y-5006860D01*
X21683444Y-5006860D02*
X21673920Y-4959241D01*
X21673920Y-4959241D02*
X21673920Y-4921146D01*
X21673920Y-4921146D02*
X21683444Y-4873527D01*
X21683444Y-4873527D02*
X21692968Y-4844955D01*
X21692968Y-4844955D02*
X21702491Y-4825908D01*
X21702491Y-4825908D02*
X21721539Y-4797336D01*
X21721539Y-4797336D02*
X21731063Y-4787812D01*
X21912015Y-5016384D02*
X21797730Y-5016384D01*
X21854872Y-5016384D02*
X21854872Y-4816384D01*
X21854872Y-4816384D02*
X21835825Y-4844955D01*
X21835825Y-4844955D02*
X21816777Y-4864003D01*
X21816777Y-4864003D02*
X21797730Y-4873527D01*
X21988206Y-4835431D02*
X21997730Y-4825908D01*
X21997730Y-4825908D02*
X22016777Y-4816384D01*
X22016777Y-4816384D02*
X22064396Y-4816384D01*
X22064396Y-4816384D02*
X22083444Y-4825908D01*
X22083444Y-4825908D02*
X22092968Y-4835431D01*
X22092968Y-4835431D02*
X22102491Y-4854479D01*
X22102491Y-4854479D02*
X22102491Y-4873527D01*
X22102491Y-4873527D02*
X22092968Y-4902098D01*
X22092968Y-4902098D02*
X21978682Y-5016384D01*
X21978682Y-5016384D02*
X22102491Y-5016384D01*
X22340587Y-5016384D02*
X22340587Y-4816384D01*
X22426301Y-5016384D02*
X22426301Y-4911622D01*
X22426301Y-4911622D02*
X22416777Y-4892574D01*
X22416777Y-4892574D02*
X22397730Y-4883050D01*
X22397730Y-4883050D02*
X22369158Y-4883050D01*
X22369158Y-4883050D02*
X22350111Y-4892574D01*
X22350111Y-4892574D02*
X22340587Y-4902098D01*
X22550110Y-5016384D02*
X22531063Y-5006860D01*
X22531063Y-5006860D02*
X22521539Y-4997336D01*
X22521539Y-4997336D02*
X22512015Y-4978289D01*
X22512015Y-4978289D02*
X22512015Y-4921146D01*
X22512015Y-4921146D02*
X22521539Y-4902098D01*
X22521539Y-4902098D02*
X22531063Y-4892574D01*
X22531063Y-4892574D02*
X22550110Y-4883050D01*
X22550110Y-4883050D02*
X22578682Y-4883050D01*
X22578682Y-4883050D02*
X22597730Y-4892574D01*
X22597730Y-4892574D02*
X22607253Y-4902098D01*
X22607253Y-4902098D02*
X22616777Y-4921146D01*
X22616777Y-4921146D02*
X22616777Y-4978289D01*
X22616777Y-4978289D02*
X22607253Y-4997336D01*
X22607253Y-4997336D02*
X22597730Y-5006860D01*
X22597730Y-5006860D02*
X22578682Y-5016384D01*
X22578682Y-5016384D02*
X22550110Y-5016384D01*
X22731063Y-5016384D02*
X22712015Y-5006860D01*
X22712015Y-5006860D02*
X22702491Y-4987812D01*
X22702491Y-4987812D02*
X22702491Y-4816384D01*
X22883444Y-5006860D02*
X22864396Y-5016384D01*
X22864396Y-5016384D02*
X22826301Y-5016384D01*
X22826301Y-5016384D02*
X22807253Y-5006860D01*
X22807253Y-5006860D02*
X22797730Y-4987812D01*
X22797730Y-4987812D02*
X22797730Y-4911622D01*
X22797730Y-4911622D02*
X22807253Y-4892574D01*
X22807253Y-4892574D02*
X22826301Y-4883050D01*
X22826301Y-4883050D02*
X22864396Y-4883050D01*
X22864396Y-4883050D02*
X22883444Y-4892574D01*
X22883444Y-4892574D02*
X22892968Y-4911622D01*
X22892968Y-4911622D02*
X22892968Y-4930670D01*
X22892968Y-4930670D02*
X22797730Y-4949717D01*
X22969158Y-5006860D02*
X22988206Y-5016384D01*
X22988206Y-5016384D02*
X23026301Y-5016384D01*
X23026301Y-5016384D02*
X23045349Y-5006860D01*
X23045349Y-5006860D02*
X23054872Y-4987812D01*
X23054872Y-4987812D02*
X23054872Y-4978289D01*
X23054872Y-4978289D02*
X23045349Y-4959241D01*
X23045349Y-4959241D02*
X23026301Y-4949717D01*
X23026301Y-4949717D02*
X22997730Y-4949717D01*
X22997730Y-4949717D02*
X22978682Y-4940193D01*
X22978682Y-4940193D02*
X22969158Y-4921146D01*
X22969158Y-4921146D02*
X22969158Y-4911622D01*
X22969158Y-4911622D02*
X22978682Y-4892574D01*
X22978682Y-4892574D02*
X22997730Y-4883050D01*
X22997730Y-4883050D02*
X23026301Y-4883050D01*
X23026301Y-4883050D02*
X23045349Y-4892574D01*
X23121539Y-5092574D02*
X23131063Y-5083050D01*
X23131063Y-5083050D02*
X23150111Y-5054479D01*
X23150111Y-5054479D02*
X23159634Y-5035431D01*
X23159634Y-5035431D02*
X23169158Y-5006860D01*
X23169158Y-5006860D02*
X23178682Y-4959241D01*
X23178682Y-4959241D02*
X23178682Y-4921146D01*
X23178682Y-4921146D02*
X23169158Y-4873527D01*
X23169158Y-4873527D02*
X23159634Y-4844955D01*
X23159634Y-4844955D02*
X23150111Y-4825908D01*
X23150111Y-4825908D02*
X23131063Y-4797336D01*
X23131063Y-4797336D02*
X23121539Y-4787812D01*
M02*
