%TF.GenerationSoftware,KiCad,Pcbnew,7.0.9*%
%TF.CreationDate,2024-01-10T19:06:40-08:00*%
%TF.ProjectId,CANswitch,43414e73-7769-4746-9368-2e6b69636164,rev?*%
%TF.SameCoordinates,Original*%
%TF.FileFunction,Legend,Top*%
%TF.FilePolarity,Positive*%
%FSLAX46Y46*%
G04 Gerber Fmt 4.6, Leading zero omitted, Abs format (unit mm)*
G04 Created by KiCad (PCBNEW 7.0.9) date 2024-01-10 19:06:40*
%MOMM*%
%LPD*%
G01*
G04 APERTURE LIST*
%ADD10C,0.120000*%
%ADD11C,0.100000*%
G04 APERTURE END LIST*
D10*
%TO.C,R2*%
X194640000Y-58674000D02*
X193690000Y-58674000D01*
X193690000Y-59594000D02*
X193690000Y-57754000D01*
X193690000Y-57754000D02*
X189850000Y-57754000D01*
X189850000Y-59594000D02*
X193690000Y-59594000D01*
X189850000Y-57754000D02*
X189850000Y-59594000D01*
X188900000Y-58674000D02*
X189850000Y-58674000D01*
D11*
%TO.C,SW1*%
X186738000Y-39990000D02*
X186738000Y-55990000D01*
X195738000Y-39990000D02*
X183738000Y-39990000D01*
X183738000Y-39990000D02*
X183738000Y-55990000D01*
X183738000Y-55990000D02*
X195738000Y-55990000D01*
X195738000Y-55990000D02*
X195738000Y-39990000D01*
X186738000Y-44990000D02*
X183738000Y-44990000D01*
X183738000Y-44990000D02*
X183738000Y-50990000D01*
X183738000Y-50990000D02*
X186738000Y-50990000D01*
X186738000Y-50990000D02*
X186738000Y-44990000D01*
D10*
%TO.C,R1*%
X194640000Y-38100000D02*
X193690000Y-38100000D01*
X193690000Y-39020000D02*
X193690000Y-37180000D01*
X193690000Y-37180000D02*
X189850000Y-37180000D01*
X189850000Y-39020000D02*
X193690000Y-39020000D01*
X189850000Y-37180000D02*
X189850000Y-39020000D01*
X188900000Y-38100000D02*
X189850000Y-38100000D01*
%TD*%
M02*
