%TF.GenerationSoftware,KiCad,Pcbnew,7.0.9*%
%TF.CreationDate,2024-01-10T19:06:43-08:00*%
%TF.ProjectId,CANswitch,43414e73-7769-4746-9368-2e6b69636164,rev?*%
%TF.SameCoordinates,Original*%
%TF.FileFunction,Drillmap*%
%TF.FilePolarity,Positive*%
%FSLAX45Y45*%
G04 Gerber Fmt 4.5, Leading zero omitted, Abs format (unit mm)*
G04 Created by KiCad (PCBNEW 7.0.9) date 2024-01-10 19:06:43*
%MOMM*%
%LPD*%
G01*
G04 APERTURE LIST*
%ADD10C,0.100000*%
%ADD11C,0.200000*%
%ADD12C,0.150000*%
G04 APERTURE END LIST*
D10*
X18613120Y-3030220D02*
X19766280Y-3030220D01*
X19766280Y-6637020D01*
X18613120Y-6637020D01*
X18613120Y-3030220D01*
D11*
D10*
X19334800Y-5898200D02*
X19374800Y-5938200D01*
X19374800Y-5898200D02*
X19334800Y-5938200D01*
X19466380Y-6075600D02*
X19506380Y-6115600D01*
X19506380Y-6075600D02*
X19466380Y-6115600D01*
X18831000Y-3810000D02*
G75*
G03*
X18831000Y-3810000I-35000J0D01*
G01*
X18831000Y-5867400D02*
G75*
G03*
X18831000Y-5867400I-35000J0D01*
G01*
X19593000Y-3810000D02*
G75*
G03*
X19593000Y-3810000I-35000J0D01*
G01*
X19593000Y-5867400D02*
G75*
G03*
X19593000Y-5867400I-35000J0D01*
G01*
X19023800Y-4261500D02*
X19023800Y-4336500D01*
X18986300Y-4299000D02*
X19061300Y-4299000D01*
X19023800Y-4461500D02*
X19023800Y-4536500D01*
X18986300Y-4499000D02*
X19061300Y-4499000D01*
X19023800Y-4661500D02*
X19023800Y-4736500D01*
X18986300Y-4699000D02*
X19061300Y-4699000D01*
X19023800Y-4861500D02*
X19023800Y-4936500D01*
X18986300Y-4899000D02*
X19061300Y-4899000D01*
X19023800Y-5061500D02*
X19023800Y-5136500D01*
X18986300Y-5099000D02*
X19061300Y-5099000D01*
X19023800Y-5261500D02*
X19023800Y-5336500D01*
X18986300Y-5299000D02*
X19061300Y-5299000D01*
X19273800Y-4261500D02*
X19273800Y-4336500D01*
X19236300Y-4299000D02*
X19311300Y-4299000D01*
X19273800Y-4461500D02*
X19273800Y-4536500D01*
X19236300Y-4499000D02*
X19311300Y-4499000D01*
X19273800Y-4661500D02*
X19273800Y-4736500D01*
X19236300Y-4699000D02*
X19311300Y-4699000D01*
X19273800Y-4861500D02*
X19273800Y-4936500D01*
X19236300Y-4899000D02*
X19311300Y-4899000D01*
X19273800Y-5061500D02*
X19273800Y-5136500D01*
X19236300Y-5099000D02*
X19311300Y-5099000D01*
X19273800Y-5261500D02*
X19273800Y-5336500D01*
X19236300Y-5299000D02*
X19311300Y-5299000D01*
D12*
X18921834Y-5512034D02*
X18921834Y-5405967D01*
X18815767Y-5405967D01*
X18815767Y-5512034D01*
X18921834Y-5512034D01*
X19481834Y-4192033D02*
X19481834Y-4085966D01*
X19375767Y-4085966D01*
X19375767Y-4192033D01*
X19481834Y-4192033D01*
D11*
X18868897Y-6953504D02*
X18868897Y-6753504D01*
X18868897Y-6753504D02*
X18916516Y-6753504D01*
X18916516Y-6753504D02*
X18945087Y-6763028D01*
X18945087Y-6763028D02*
X18964135Y-6782075D01*
X18964135Y-6782075D02*
X18973659Y-6801123D01*
X18973659Y-6801123D02*
X18983183Y-6839218D01*
X18983183Y-6839218D02*
X18983183Y-6867789D01*
X18983183Y-6867789D02*
X18973659Y-6905885D01*
X18973659Y-6905885D02*
X18964135Y-6924932D01*
X18964135Y-6924932D02*
X18945087Y-6943980D01*
X18945087Y-6943980D02*
X18916516Y-6953504D01*
X18916516Y-6953504D02*
X18868897Y-6953504D01*
X19068897Y-6953504D02*
X19068897Y-6820170D01*
X19068897Y-6858266D02*
X19078421Y-6839218D01*
X19078421Y-6839218D02*
X19087944Y-6829694D01*
X19087944Y-6829694D02*
X19106992Y-6820170D01*
X19106992Y-6820170D02*
X19126040Y-6820170D01*
X19192706Y-6953504D02*
X19192706Y-6820170D01*
X19192706Y-6753504D02*
X19183183Y-6763028D01*
X19183183Y-6763028D02*
X19192706Y-6772551D01*
X19192706Y-6772551D02*
X19202230Y-6763028D01*
X19202230Y-6763028D02*
X19192706Y-6753504D01*
X19192706Y-6753504D02*
X19192706Y-6772551D01*
X19316516Y-6953504D02*
X19297468Y-6943980D01*
X19297468Y-6943980D02*
X19287944Y-6924932D01*
X19287944Y-6924932D02*
X19287944Y-6753504D01*
X19421278Y-6953504D02*
X19402230Y-6943980D01*
X19402230Y-6943980D02*
X19392706Y-6924932D01*
X19392706Y-6924932D02*
X19392706Y-6753504D01*
X19649849Y-6953504D02*
X19649849Y-6753504D01*
X19649849Y-6753504D02*
X19716516Y-6896361D01*
X19716516Y-6896361D02*
X19783183Y-6753504D01*
X19783183Y-6753504D02*
X19783183Y-6953504D01*
X19964135Y-6953504D02*
X19964135Y-6848742D01*
X19964135Y-6848742D02*
X19954611Y-6829694D01*
X19954611Y-6829694D02*
X19935564Y-6820170D01*
X19935564Y-6820170D02*
X19897468Y-6820170D01*
X19897468Y-6820170D02*
X19878421Y-6829694D01*
X19964135Y-6943980D02*
X19945087Y-6953504D01*
X19945087Y-6953504D02*
X19897468Y-6953504D01*
X19897468Y-6953504D02*
X19878421Y-6943980D01*
X19878421Y-6943980D02*
X19868897Y-6924932D01*
X19868897Y-6924932D02*
X19868897Y-6905885D01*
X19868897Y-6905885D02*
X19878421Y-6886837D01*
X19878421Y-6886837D02*
X19897468Y-6877313D01*
X19897468Y-6877313D02*
X19945087Y-6877313D01*
X19945087Y-6877313D02*
X19964135Y-6867789D01*
X20059373Y-6820170D02*
X20059373Y-7020170D01*
X20059373Y-6829694D02*
X20078421Y-6820170D01*
X20078421Y-6820170D02*
X20116516Y-6820170D01*
X20116516Y-6820170D02*
X20135564Y-6829694D01*
X20135564Y-6829694D02*
X20145087Y-6839218D01*
X20145087Y-6839218D02*
X20154611Y-6858266D01*
X20154611Y-6858266D02*
X20154611Y-6915408D01*
X20154611Y-6915408D02*
X20145087Y-6934456D01*
X20145087Y-6934456D02*
X20135564Y-6943980D01*
X20135564Y-6943980D02*
X20116516Y-6953504D01*
X20116516Y-6953504D02*
X20078421Y-6953504D01*
X20078421Y-6953504D02*
X20059373Y-6943980D01*
X20240325Y-6934456D02*
X20249849Y-6943980D01*
X20249849Y-6943980D02*
X20240325Y-6953504D01*
X20240325Y-6953504D02*
X20230802Y-6943980D01*
X20230802Y-6943980D02*
X20240325Y-6934456D01*
X20240325Y-6934456D02*
X20240325Y-6953504D01*
X20240325Y-6829694D02*
X20249849Y-6839218D01*
X20249849Y-6839218D02*
X20240325Y-6848742D01*
X20240325Y-6848742D02*
X20230802Y-6839218D01*
X20230802Y-6839218D02*
X20240325Y-6829694D01*
X20240325Y-6829694D02*
X20240325Y-6848742D01*
D10*
X18568120Y-7262020D02*
X18608120Y-7302020D01*
X18608120Y-7262020D02*
X18568120Y-7302020D01*
D11*
X18906992Y-7173504D02*
X18926040Y-7173504D01*
X18926040Y-7173504D02*
X18945087Y-7183028D01*
X18945087Y-7183028D02*
X18954611Y-7192551D01*
X18954611Y-7192551D02*
X18964135Y-7211599D01*
X18964135Y-7211599D02*
X18973659Y-7249694D01*
X18973659Y-7249694D02*
X18973659Y-7297313D01*
X18973659Y-7297313D02*
X18964135Y-7335408D01*
X18964135Y-7335408D02*
X18954611Y-7354456D01*
X18954611Y-7354456D02*
X18945087Y-7363980D01*
X18945087Y-7363980D02*
X18926040Y-7373504D01*
X18926040Y-7373504D02*
X18906992Y-7373504D01*
X18906992Y-7373504D02*
X18887944Y-7363980D01*
X18887944Y-7363980D02*
X18878421Y-7354456D01*
X18878421Y-7354456D02*
X18868897Y-7335408D01*
X18868897Y-7335408D02*
X18859373Y-7297313D01*
X18859373Y-7297313D02*
X18859373Y-7249694D01*
X18859373Y-7249694D02*
X18868897Y-7211599D01*
X18868897Y-7211599D02*
X18878421Y-7192551D01*
X18878421Y-7192551D02*
X18887944Y-7183028D01*
X18887944Y-7183028D02*
X18906992Y-7173504D01*
X19059373Y-7354456D02*
X19068897Y-7363980D01*
X19068897Y-7363980D02*
X19059373Y-7373504D01*
X19059373Y-7373504D02*
X19049849Y-7363980D01*
X19049849Y-7363980D02*
X19059373Y-7354456D01*
X19059373Y-7354456D02*
X19059373Y-7373504D01*
X19240325Y-7240170D02*
X19240325Y-7373504D01*
X19192706Y-7163980D02*
X19145087Y-7306837D01*
X19145087Y-7306837D02*
X19268897Y-7306837D01*
X19383183Y-7173504D02*
X19402230Y-7173504D01*
X19402230Y-7173504D02*
X19421278Y-7183028D01*
X19421278Y-7183028D02*
X19430802Y-7192551D01*
X19430802Y-7192551D02*
X19440325Y-7211599D01*
X19440325Y-7211599D02*
X19449849Y-7249694D01*
X19449849Y-7249694D02*
X19449849Y-7297313D01*
X19449849Y-7297313D02*
X19440325Y-7335408D01*
X19440325Y-7335408D02*
X19430802Y-7354456D01*
X19430802Y-7354456D02*
X19421278Y-7363980D01*
X19421278Y-7363980D02*
X19402230Y-7373504D01*
X19402230Y-7373504D02*
X19383183Y-7373504D01*
X19383183Y-7373504D02*
X19364135Y-7363980D01*
X19364135Y-7363980D02*
X19354611Y-7354456D01*
X19354611Y-7354456D02*
X19345087Y-7335408D01*
X19345087Y-7335408D02*
X19335564Y-7297313D01*
X19335564Y-7297313D02*
X19335564Y-7249694D01*
X19335564Y-7249694D02*
X19345087Y-7211599D01*
X19345087Y-7211599D02*
X19354611Y-7192551D01*
X19354611Y-7192551D02*
X19364135Y-7183028D01*
X19364135Y-7183028D02*
X19383183Y-7173504D01*
X19573659Y-7173504D02*
X19592706Y-7173504D01*
X19592706Y-7173504D02*
X19611754Y-7183028D01*
X19611754Y-7183028D02*
X19621278Y-7192551D01*
X19621278Y-7192551D02*
X19630802Y-7211599D01*
X19630802Y-7211599D02*
X19640325Y-7249694D01*
X19640325Y-7249694D02*
X19640325Y-7297313D01*
X19640325Y-7297313D02*
X19630802Y-7335408D01*
X19630802Y-7335408D02*
X19621278Y-7354456D01*
X19621278Y-7354456D02*
X19611754Y-7363980D01*
X19611754Y-7363980D02*
X19592706Y-7373504D01*
X19592706Y-7373504D02*
X19573659Y-7373504D01*
X19573659Y-7373504D02*
X19554611Y-7363980D01*
X19554611Y-7363980D02*
X19545087Y-7354456D01*
X19545087Y-7354456D02*
X19535564Y-7335408D01*
X19535564Y-7335408D02*
X19526040Y-7297313D01*
X19526040Y-7297313D02*
X19526040Y-7249694D01*
X19526040Y-7249694D02*
X19535564Y-7211599D01*
X19535564Y-7211599D02*
X19545087Y-7192551D01*
X19545087Y-7192551D02*
X19554611Y-7183028D01*
X19554611Y-7183028D02*
X19573659Y-7173504D01*
X19726040Y-7373504D02*
X19726040Y-7240170D01*
X19726040Y-7259218D02*
X19735564Y-7249694D01*
X19735564Y-7249694D02*
X19754611Y-7240170D01*
X19754611Y-7240170D02*
X19783183Y-7240170D01*
X19783183Y-7240170D02*
X19802230Y-7249694D01*
X19802230Y-7249694D02*
X19811754Y-7268742D01*
X19811754Y-7268742D02*
X19811754Y-7373504D01*
X19811754Y-7268742D02*
X19821278Y-7249694D01*
X19821278Y-7249694D02*
X19840325Y-7240170D01*
X19840325Y-7240170D02*
X19868897Y-7240170D01*
X19868897Y-7240170D02*
X19887945Y-7249694D01*
X19887945Y-7249694D02*
X19897468Y-7268742D01*
X19897468Y-7268742D02*
X19897468Y-7373504D01*
X19992706Y-7373504D02*
X19992706Y-7240170D01*
X19992706Y-7259218D02*
X20002230Y-7249694D01*
X20002230Y-7249694D02*
X20021278Y-7240170D01*
X20021278Y-7240170D02*
X20049849Y-7240170D01*
X20049849Y-7240170D02*
X20068897Y-7249694D01*
X20068897Y-7249694D02*
X20078421Y-7268742D01*
X20078421Y-7268742D02*
X20078421Y-7373504D01*
X20078421Y-7268742D02*
X20087945Y-7249694D01*
X20087945Y-7249694D02*
X20106992Y-7240170D01*
X20106992Y-7240170D02*
X20135564Y-7240170D01*
X20135564Y-7240170D02*
X20154611Y-7249694D01*
X20154611Y-7249694D02*
X20164135Y-7268742D01*
X20164135Y-7268742D02*
X20164135Y-7373504D01*
X20554611Y-7163980D02*
X20383183Y-7421123D01*
X20811754Y-7173504D02*
X20830802Y-7173504D01*
X20830802Y-7173504D02*
X20849849Y-7183028D01*
X20849849Y-7183028D02*
X20859373Y-7192551D01*
X20859373Y-7192551D02*
X20868897Y-7211599D01*
X20868897Y-7211599D02*
X20878421Y-7249694D01*
X20878421Y-7249694D02*
X20878421Y-7297313D01*
X20878421Y-7297313D02*
X20868897Y-7335408D01*
X20868897Y-7335408D02*
X20859373Y-7354456D01*
X20859373Y-7354456D02*
X20849849Y-7363980D01*
X20849849Y-7363980D02*
X20830802Y-7373504D01*
X20830802Y-7373504D02*
X20811754Y-7373504D01*
X20811754Y-7373504D02*
X20792707Y-7363980D01*
X20792707Y-7363980D02*
X20783183Y-7354456D01*
X20783183Y-7354456D02*
X20773659Y-7335408D01*
X20773659Y-7335408D02*
X20764135Y-7297313D01*
X20764135Y-7297313D02*
X20764135Y-7249694D01*
X20764135Y-7249694D02*
X20773659Y-7211599D01*
X20773659Y-7211599D02*
X20783183Y-7192551D01*
X20783183Y-7192551D02*
X20792707Y-7183028D01*
X20792707Y-7183028D02*
X20811754Y-7173504D01*
X20964135Y-7354456D02*
X20973659Y-7363980D01*
X20973659Y-7363980D02*
X20964135Y-7373504D01*
X20964135Y-7373504D02*
X20954611Y-7363980D01*
X20954611Y-7363980D02*
X20964135Y-7354456D01*
X20964135Y-7354456D02*
X20964135Y-7373504D01*
X21097468Y-7173504D02*
X21116516Y-7173504D01*
X21116516Y-7173504D02*
X21135564Y-7183028D01*
X21135564Y-7183028D02*
X21145088Y-7192551D01*
X21145088Y-7192551D02*
X21154611Y-7211599D01*
X21154611Y-7211599D02*
X21164135Y-7249694D01*
X21164135Y-7249694D02*
X21164135Y-7297313D01*
X21164135Y-7297313D02*
X21154611Y-7335408D01*
X21154611Y-7335408D02*
X21145088Y-7354456D01*
X21145088Y-7354456D02*
X21135564Y-7363980D01*
X21135564Y-7363980D02*
X21116516Y-7373504D01*
X21116516Y-7373504D02*
X21097468Y-7373504D01*
X21097468Y-7373504D02*
X21078421Y-7363980D01*
X21078421Y-7363980D02*
X21068897Y-7354456D01*
X21068897Y-7354456D02*
X21059373Y-7335408D01*
X21059373Y-7335408D02*
X21049849Y-7297313D01*
X21049849Y-7297313D02*
X21049849Y-7249694D01*
X21049849Y-7249694D02*
X21059373Y-7211599D01*
X21059373Y-7211599D02*
X21068897Y-7192551D01*
X21068897Y-7192551D02*
X21078421Y-7183028D01*
X21078421Y-7183028D02*
X21097468Y-7173504D01*
X21354611Y-7373504D02*
X21240326Y-7373504D01*
X21297468Y-7373504D02*
X21297468Y-7173504D01*
X21297468Y-7173504D02*
X21278421Y-7202075D01*
X21278421Y-7202075D02*
X21259373Y-7221123D01*
X21259373Y-7221123D02*
X21240326Y-7230647D01*
X21535564Y-7173504D02*
X21440326Y-7173504D01*
X21440326Y-7173504D02*
X21430802Y-7268742D01*
X21430802Y-7268742D02*
X21440326Y-7259218D01*
X21440326Y-7259218D02*
X21459373Y-7249694D01*
X21459373Y-7249694D02*
X21506992Y-7249694D01*
X21506992Y-7249694D02*
X21526040Y-7259218D01*
X21526040Y-7259218D02*
X21535564Y-7268742D01*
X21535564Y-7268742D02*
X21545088Y-7287789D01*
X21545088Y-7287789D02*
X21545088Y-7335408D01*
X21545088Y-7335408D02*
X21535564Y-7354456D01*
X21535564Y-7354456D02*
X21526040Y-7363980D01*
X21526040Y-7363980D02*
X21506992Y-7373504D01*
X21506992Y-7373504D02*
X21459373Y-7373504D01*
X21459373Y-7373504D02*
X21440326Y-7363980D01*
X21440326Y-7363980D02*
X21430802Y-7354456D01*
X21611754Y-7173504D02*
X21745088Y-7173504D01*
X21745088Y-7173504D02*
X21659373Y-7373504D01*
X21811754Y-7173504D02*
X21811754Y-7211599D01*
X21887945Y-7173504D02*
X21887945Y-7211599D01*
X22183183Y-7449694D02*
X22173659Y-7440170D01*
X22173659Y-7440170D02*
X22154611Y-7411599D01*
X22154611Y-7411599D02*
X22145088Y-7392551D01*
X22145088Y-7392551D02*
X22135564Y-7363980D01*
X22135564Y-7363980D02*
X22126040Y-7316361D01*
X22126040Y-7316361D02*
X22126040Y-7278266D01*
X22126040Y-7278266D02*
X22135564Y-7230647D01*
X22135564Y-7230647D02*
X22145088Y-7202075D01*
X22145088Y-7202075D02*
X22154611Y-7183028D01*
X22154611Y-7183028D02*
X22173659Y-7154456D01*
X22173659Y-7154456D02*
X22183183Y-7144932D01*
X22249850Y-7192551D02*
X22259373Y-7183028D01*
X22259373Y-7183028D02*
X22278421Y-7173504D01*
X22278421Y-7173504D02*
X22326040Y-7173504D01*
X22326040Y-7173504D02*
X22345088Y-7183028D01*
X22345088Y-7183028D02*
X22354611Y-7192551D01*
X22354611Y-7192551D02*
X22364135Y-7211599D01*
X22364135Y-7211599D02*
X22364135Y-7230647D01*
X22364135Y-7230647D02*
X22354611Y-7259218D01*
X22354611Y-7259218D02*
X22240326Y-7373504D01*
X22240326Y-7373504D02*
X22364135Y-7373504D01*
X22602230Y-7373504D02*
X22602230Y-7173504D01*
X22687945Y-7373504D02*
X22687945Y-7268742D01*
X22687945Y-7268742D02*
X22678421Y-7249694D01*
X22678421Y-7249694D02*
X22659373Y-7240170D01*
X22659373Y-7240170D02*
X22630802Y-7240170D01*
X22630802Y-7240170D02*
X22611754Y-7249694D01*
X22611754Y-7249694D02*
X22602230Y-7259218D01*
X22811754Y-7373504D02*
X22792707Y-7363980D01*
X22792707Y-7363980D02*
X22783183Y-7354456D01*
X22783183Y-7354456D02*
X22773659Y-7335408D01*
X22773659Y-7335408D02*
X22773659Y-7278266D01*
X22773659Y-7278266D02*
X22783183Y-7259218D01*
X22783183Y-7259218D02*
X22792707Y-7249694D01*
X22792707Y-7249694D02*
X22811754Y-7240170D01*
X22811754Y-7240170D02*
X22840326Y-7240170D01*
X22840326Y-7240170D02*
X22859373Y-7249694D01*
X22859373Y-7249694D02*
X22868897Y-7259218D01*
X22868897Y-7259218D02*
X22878421Y-7278266D01*
X22878421Y-7278266D02*
X22878421Y-7335408D01*
X22878421Y-7335408D02*
X22868897Y-7354456D01*
X22868897Y-7354456D02*
X22859373Y-7363980D01*
X22859373Y-7363980D02*
X22840326Y-7373504D01*
X22840326Y-7373504D02*
X22811754Y-7373504D01*
X22992707Y-7373504D02*
X22973659Y-7363980D01*
X22973659Y-7363980D02*
X22964135Y-7344932D01*
X22964135Y-7344932D02*
X22964135Y-7173504D01*
X23145088Y-7363980D02*
X23126040Y-7373504D01*
X23126040Y-7373504D02*
X23087945Y-7373504D01*
X23087945Y-7373504D02*
X23068897Y-7363980D01*
X23068897Y-7363980D02*
X23059373Y-7344932D01*
X23059373Y-7344932D02*
X23059373Y-7268742D01*
X23059373Y-7268742D02*
X23068897Y-7249694D01*
X23068897Y-7249694D02*
X23087945Y-7240170D01*
X23087945Y-7240170D02*
X23126040Y-7240170D01*
X23126040Y-7240170D02*
X23145088Y-7249694D01*
X23145088Y-7249694D02*
X23154611Y-7268742D01*
X23154611Y-7268742D02*
X23154611Y-7287789D01*
X23154611Y-7287789D02*
X23059373Y-7306837D01*
X23230802Y-7363980D02*
X23249850Y-7373504D01*
X23249850Y-7373504D02*
X23287945Y-7373504D01*
X23287945Y-7373504D02*
X23306992Y-7363980D01*
X23306992Y-7363980D02*
X23316516Y-7344932D01*
X23316516Y-7344932D02*
X23316516Y-7335408D01*
X23316516Y-7335408D02*
X23306992Y-7316361D01*
X23306992Y-7316361D02*
X23287945Y-7306837D01*
X23287945Y-7306837D02*
X23259373Y-7306837D01*
X23259373Y-7306837D02*
X23240326Y-7297313D01*
X23240326Y-7297313D02*
X23230802Y-7278266D01*
X23230802Y-7278266D02*
X23230802Y-7268742D01*
X23230802Y-7268742D02*
X23240326Y-7249694D01*
X23240326Y-7249694D02*
X23259373Y-7240170D01*
X23259373Y-7240170D02*
X23287945Y-7240170D01*
X23287945Y-7240170D02*
X23306992Y-7249694D01*
X23383183Y-7449694D02*
X23392707Y-7440170D01*
X23392707Y-7440170D02*
X23411754Y-7411599D01*
X23411754Y-7411599D02*
X23421278Y-7392551D01*
X23421278Y-7392551D02*
X23430802Y-7363980D01*
X23430802Y-7363980D02*
X23440326Y-7316361D01*
X23440326Y-7316361D02*
X23440326Y-7278266D01*
X23440326Y-7278266D02*
X23430802Y-7230647D01*
X23430802Y-7230647D02*
X23421278Y-7202075D01*
X23421278Y-7202075D02*
X23411754Y-7183028D01*
X23411754Y-7183028D02*
X23392707Y-7154456D01*
X23392707Y-7154456D02*
X23383183Y-7144932D01*
D10*
X18608120Y-7546020D02*
G75*
G03*
X18608120Y-7546020I-35000J0D01*
G01*
D11*
X18906992Y-7437504D02*
X18926040Y-7437504D01*
X18926040Y-7437504D02*
X18945087Y-7447028D01*
X18945087Y-7447028D02*
X18954611Y-7456551D01*
X18954611Y-7456551D02*
X18964135Y-7475599D01*
X18964135Y-7475599D02*
X18973659Y-7513694D01*
X18973659Y-7513694D02*
X18973659Y-7561313D01*
X18973659Y-7561313D02*
X18964135Y-7599408D01*
X18964135Y-7599408D02*
X18954611Y-7618456D01*
X18954611Y-7618456D02*
X18945087Y-7627980D01*
X18945087Y-7627980D02*
X18926040Y-7637504D01*
X18926040Y-7637504D02*
X18906992Y-7637504D01*
X18906992Y-7637504D02*
X18887944Y-7627980D01*
X18887944Y-7627980D02*
X18878421Y-7618456D01*
X18878421Y-7618456D02*
X18868897Y-7599408D01*
X18868897Y-7599408D02*
X18859373Y-7561313D01*
X18859373Y-7561313D02*
X18859373Y-7513694D01*
X18859373Y-7513694D02*
X18868897Y-7475599D01*
X18868897Y-7475599D02*
X18878421Y-7456551D01*
X18878421Y-7456551D02*
X18887944Y-7447028D01*
X18887944Y-7447028D02*
X18906992Y-7437504D01*
X19059373Y-7618456D02*
X19068897Y-7627980D01*
X19068897Y-7627980D02*
X19059373Y-7637504D01*
X19059373Y-7637504D02*
X19049849Y-7627980D01*
X19049849Y-7627980D02*
X19059373Y-7618456D01*
X19059373Y-7618456D02*
X19059373Y-7637504D01*
X19135564Y-7437504D02*
X19268897Y-7437504D01*
X19268897Y-7437504D02*
X19183183Y-7637504D01*
X19383183Y-7437504D02*
X19402230Y-7437504D01*
X19402230Y-7437504D02*
X19421278Y-7447028D01*
X19421278Y-7447028D02*
X19430802Y-7456551D01*
X19430802Y-7456551D02*
X19440325Y-7475599D01*
X19440325Y-7475599D02*
X19449849Y-7513694D01*
X19449849Y-7513694D02*
X19449849Y-7561313D01*
X19449849Y-7561313D02*
X19440325Y-7599408D01*
X19440325Y-7599408D02*
X19430802Y-7618456D01*
X19430802Y-7618456D02*
X19421278Y-7627980D01*
X19421278Y-7627980D02*
X19402230Y-7637504D01*
X19402230Y-7637504D02*
X19383183Y-7637504D01*
X19383183Y-7637504D02*
X19364135Y-7627980D01*
X19364135Y-7627980D02*
X19354611Y-7618456D01*
X19354611Y-7618456D02*
X19345087Y-7599408D01*
X19345087Y-7599408D02*
X19335564Y-7561313D01*
X19335564Y-7561313D02*
X19335564Y-7513694D01*
X19335564Y-7513694D02*
X19345087Y-7475599D01*
X19345087Y-7475599D02*
X19354611Y-7456551D01*
X19354611Y-7456551D02*
X19364135Y-7447028D01*
X19364135Y-7447028D02*
X19383183Y-7437504D01*
X19573659Y-7437504D02*
X19592706Y-7437504D01*
X19592706Y-7437504D02*
X19611754Y-7447028D01*
X19611754Y-7447028D02*
X19621278Y-7456551D01*
X19621278Y-7456551D02*
X19630802Y-7475599D01*
X19630802Y-7475599D02*
X19640325Y-7513694D01*
X19640325Y-7513694D02*
X19640325Y-7561313D01*
X19640325Y-7561313D02*
X19630802Y-7599408D01*
X19630802Y-7599408D02*
X19621278Y-7618456D01*
X19621278Y-7618456D02*
X19611754Y-7627980D01*
X19611754Y-7627980D02*
X19592706Y-7637504D01*
X19592706Y-7637504D02*
X19573659Y-7637504D01*
X19573659Y-7637504D02*
X19554611Y-7627980D01*
X19554611Y-7627980D02*
X19545087Y-7618456D01*
X19545087Y-7618456D02*
X19535564Y-7599408D01*
X19535564Y-7599408D02*
X19526040Y-7561313D01*
X19526040Y-7561313D02*
X19526040Y-7513694D01*
X19526040Y-7513694D02*
X19535564Y-7475599D01*
X19535564Y-7475599D02*
X19545087Y-7456551D01*
X19545087Y-7456551D02*
X19554611Y-7447028D01*
X19554611Y-7447028D02*
X19573659Y-7437504D01*
X19726040Y-7637504D02*
X19726040Y-7504170D01*
X19726040Y-7523218D02*
X19735564Y-7513694D01*
X19735564Y-7513694D02*
X19754611Y-7504170D01*
X19754611Y-7504170D02*
X19783183Y-7504170D01*
X19783183Y-7504170D02*
X19802230Y-7513694D01*
X19802230Y-7513694D02*
X19811754Y-7532742D01*
X19811754Y-7532742D02*
X19811754Y-7637504D01*
X19811754Y-7532742D02*
X19821278Y-7513694D01*
X19821278Y-7513694D02*
X19840325Y-7504170D01*
X19840325Y-7504170D02*
X19868897Y-7504170D01*
X19868897Y-7504170D02*
X19887945Y-7513694D01*
X19887945Y-7513694D02*
X19897468Y-7532742D01*
X19897468Y-7532742D02*
X19897468Y-7637504D01*
X19992706Y-7637504D02*
X19992706Y-7504170D01*
X19992706Y-7523218D02*
X20002230Y-7513694D01*
X20002230Y-7513694D02*
X20021278Y-7504170D01*
X20021278Y-7504170D02*
X20049849Y-7504170D01*
X20049849Y-7504170D02*
X20068897Y-7513694D01*
X20068897Y-7513694D02*
X20078421Y-7532742D01*
X20078421Y-7532742D02*
X20078421Y-7637504D01*
X20078421Y-7532742D02*
X20087945Y-7513694D01*
X20087945Y-7513694D02*
X20106992Y-7504170D01*
X20106992Y-7504170D02*
X20135564Y-7504170D01*
X20135564Y-7504170D02*
X20154611Y-7513694D01*
X20154611Y-7513694D02*
X20164135Y-7532742D01*
X20164135Y-7532742D02*
X20164135Y-7637504D01*
X20554611Y-7427980D02*
X20383183Y-7685123D01*
X20811754Y-7437504D02*
X20830802Y-7437504D01*
X20830802Y-7437504D02*
X20849849Y-7447028D01*
X20849849Y-7447028D02*
X20859373Y-7456551D01*
X20859373Y-7456551D02*
X20868897Y-7475599D01*
X20868897Y-7475599D02*
X20878421Y-7513694D01*
X20878421Y-7513694D02*
X20878421Y-7561313D01*
X20878421Y-7561313D02*
X20868897Y-7599408D01*
X20868897Y-7599408D02*
X20859373Y-7618456D01*
X20859373Y-7618456D02*
X20849849Y-7627980D01*
X20849849Y-7627980D02*
X20830802Y-7637504D01*
X20830802Y-7637504D02*
X20811754Y-7637504D01*
X20811754Y-7637504D02*
X20792707Y-7627980D01*
X20792707Y-7627980D02*
X20783183Y-7618456D01*
X20783183Y-7618456D02*
X20773659Y-7599408D01*
X20773659Y-7599408D02*
X20764135Y-7561313D01*
X20764135Y-7561313D02*
X20764135Y-7513694D01*
X20764135Y-7513694D02*
X20773659Y-7475599D01*
X20773659Y-7475599D02*
X20783183Y-7456551D01*
X20783183Y-7456551D02*
X20792707Y-7447028D01*
X20792707Y-7447028D02*
X20811754Y-7437504D01*
X20964135Y-7618456D02*
X20973659Y-7627980D01*
X20973659Y-7627980D02*
X20964135Y-7637504D01*
X20964135Y-7637504D02*
X20954611Y-7627980D01*
X20954611Y-7627980D02*
X20964135Y-7618456D01*
X20964135Y-7618456D02*
X20964135Y-7637504D01*
X21097468Y-7437504D02*
X21116516Y-7437504D01*
X21116516Y-7437504D02*
X21135564Y-7447028D01*
X21135564Y-7447028D02*
X21145088Y-7456551D01*
X21145088Y-7456551D02*
X21154611Y-7475599D01*
X21154611Y-7475599D02*
X21164135Y-7513694D01*
X21164135Y-7513694D02*
X21164135Y-7561313D01*
X21164135Y-7561313D02*
X21154611Y-7599408D01*
X21154611Y-7599408D02*
X21145088Y-7618456D01*
X21145088Y-7618456D02*
X21135564Y-7627980D01*
X21135564Y-7627980D02*
X21116516Y-7637504D01*
X21116516Y-7637504D02*
X21097468Y-7637504D01*
X21097468Y-7637504D02*
X21078421Y-7627980D01*
X21078421Y-7627980D02*
X21068897Y-7618456D01*
X21068897Y-7618456D02*
X21059373Y-7599408D01*
X21059373Y-7599408D02*
X21049849Y-7561313D01*
X21049849Y-7561313D02*
X21049849Y-7513694D01*
X21049849Y-7513694D02*
X21059373Y-7475599D01*
X21059373Y-7475599D02*
X21068897Y-7456551D01*
X21068897Y-7456551D02*
X21078421Y-7447028D01*
X21078421Y-7447028D02*
X21097468Y-7437504D01*
X21240326Y-7456551D02*
X21249849Y-7447028D01*
X21249849Y-7447028D02*
X21268897Y-7437504D01*
X21268897Y-7437504D02*
X21316516Y-7437504D01*
X21316516Y-7437504D02*
X21335564Y-7447028D01*
X21335564Y-7447028D02*
X21345088Y-7456551D01*
X21345088Y-7456551D02*
X21354611Y-7475599D01*
X21354611Y-7475599D02*
X21354611Y-7494647D01*
X21354611Y-7494647D02*
X21345088Y-7523218D01*
X21345088Y-7523218D02*
X21230802Y-7637504D01*
X21230802Y-7637504D02*
X21354611Y-7637504D01*
X21421278Y-7437504D02*
X21554611Y-7437504D01*
X21554611Y-7437504D02*
X21468897Y-7637504D01*
X21716516Y-7437504D02*
X21678421Y-7437504D01*
X21678421Y-7437504D02*
X21659373Y-7447028D01*
X21659373Y-7447028D02*
X21649849Y-7456551D01*
X21649849Y-7456551D02*
X21630802Y-7485123D01*
X21630802Y-7485123D02*
X21621278Y-7523218D01*
X21621278Y-7523218D02*
X21621278Y-7599408D01*
X21621278Y-7599408D02*
X21630802Y-7618456D01*
X21630802Y-7618456D02*
X21640326Y-7627980D01*
X21640326Y-7627980D02*
X21659373Y-7637504D01*
X21659373Y-7637504D02*
X21697469Y-7637504D01*
X21697469Y-7637504D02*
X21716516Y-7627980D01*
X21716516Y-7627980D02*
X21726040Y-7618456D01*
X21726040Y-7618456D02*
X21735564Y-7599408D01*
X21735564Y-7599408D02*
X21735564Y-7551789D01*
X21735564Y-7551789D02*
X21726040Y-7532742D01*
X21726040Y-7532742D02*
X21716516Y-7523218D01*
X21716516Y-7523218D02*
X21697469Y-7513694D01*
X21697469Y-7513694D02*
X21659373Y-7513694D01*
X21659373Y-7513694D02*
X21640326Y-7523218D01*
X21640326Y-7523218D02*
X21630802Y-7532742D01*
X21630802Y-7532742D02*
X21621278Y-7551789D01*
X21811754Y-7437504D02*
X21811754Y-7475599D01*
X21887945Y-7437504D02*
X21887945Y-7475599D01*
X22183183Y-7713694D02*
X22173659Y-7704170D01*
X22173659Y-7704170D02*
X22154611Y-7675599D01*
X22154611Y-7675599D02*
X22145088Y-7656551D01*
X22145088Y-7656551D02*
X22135564Y-7627980D01*
X22135564Y-7627980D02*
X22126040Y-7580361D01*
X22126040Y-7580361D02*
X22126040Y-7542266D01*
X22126040Y-7542266D02*
X22135564Y-7494647D01*
X22135564Y-7494647D02*
X22145088Y-7466075D01*
X22145088Y-7466075D02*
X22154611Y-7447028D01*
X22154611Y-7447028D02*
X22173659Y-7418456D01*
X22173659Y-7418456D02*
X22183183Y-7408932D01*
X22345088Y-7504170D02*
X22345088Y-7637504D01*
X22297469Y-7427980D02*
X22249850Y-7570837D01*
X22249850Y-7570837D02*
X22373659Y-7570837D01*
X22602230Y-7637504D02*
X22602230Y-7437504D01*
X22687945Y-7637504D02*
X22687945Y-7532742D01*
X22687945Y-7532742D02*
X22678421Y-7513694D01*
X22678421Y-7513694D02*
X22659373Y-7504170D01*
X22659373Y-7504170D02*
X22630802Y-7504170D01*
X22630802Y-7504170D02*
X22611754Y-7513694D01*
X22611754Y-7513694D02*
X22602230Y-7523218D01*
X22811754Y-7637504D02*
X22792707Y-7627980D01*
X22792707Y-7627980D02*
X22783183Y-7618456D01*
X22783183Y-7618456D02*
X22773659Y-7599408D01*
X22773659Y-7599408D02*
X22773659Y-7542266D01*
X22773659Y-7542266D02*
X22783183Y-7523218D01*
X22783183Y-7523218D02*
X22792707Y-7513694D01*
X22792707Y-7513694D02*
X22811754Y-7504170D01*
X22811754Y-7504170D02*
X22840326Y-7504170D01*
X22840326Y-7504170D02*
X22859373Y-7513694D01*
X22859373Y-7513694D02*
X22868897Y-7523218D01*
X22868897Y-7523218D02*
X22878421Y-7542266D01*
X22878421Y-7542266D02*
X22878421Y-7599408D01*
X22878421Y-7599408D02*
X22868897Y-7618456D01*
X22868897Y-7618456D02*
X22859373Y-7627980D01*
X22859373Y-7627980D02*
X22840326Y-7637504D01*
X22840326Y-7637504D02*
X22811754Y-7637504D01*
X22992707Y-7637504D02*
X22973659Y-7627980D01*
X22973659Y-7627980D02*
X22964135Y-7608932D01*
X22964135Y-7608932D02*
X22964135Y-7437504D01*
X23145088Y-7627980D02*
X23126040Y-7637504D01*
X23126040Y-7637504D02*
X23087945Y-7637504D01*
X23087945Y-7637504D02*
X23068897Y-7627980D01*
X23068897Y-7627980D02*
X23059373Y-7608932D01*
X23059373Y-7608932D02*
X23059373Y-7532742D01*
X23059373Y-7532742D02*
X23068897Y-7513694D01*
X23068897Y-7513694D02*
X23087945Y-7504170D01*
X23087945Y-7504170D02*
X23126040Y-7504170D01*
X23126040Y-7504170D02*
X23145088Y-7513694D01*
X23145088Y-7513694D02*
X23154611Y-7532742D01*
X23154611Y-7532742D02*
X23154611Y-7551789D01*
X23154611Y-7551789D02*
X23059373Y-7570837D01*
X23230802Y-7627980D02*
X23249850Y-7637504D01*
X23249850Y-7637504D02*
X23287945Y-7637504D01*
X23287945Y-7637504D02*
X23306992Y-7627980D01*
X23306992Y-7627980D02*
X23316516Y-7608932D01*
X23316516Y-7608932D02*
X23316516Y-7599408D01*
X23316516Y-7599408D02*
X23306992Y-7580361D01*
X23306992Y-7580361D02*
X23287945Y-7570837D01*
X23287945Y-7570837D02*
X23259373Y-7570837D01*
X23259373Y-7570837D02*
X23240326Y-7561313D01*
X23240326Y-7561313D02*
X23230802Y-7542266D01*
X23230802Y-7542266D02*
X23230802Y-7532742D01*
X23230802Y-7532742D02*
X23240326Y-7513694D01*
X23240326Y-7513694D02*
X23259373Y-7504170D01*
X23259373Y-7504170D02*
X23287945Y-7504170D01*
X23287945Y-7504170D02*
X23306992Y-7513694D01*
X23383183Y-7713694D02*
X23392707Y-7704170D01*
X23392707Y-7704170D02*
X23411754Y-7675599D01*
X23411754Y-7675599D02*
X23421278Y-7656551D01*
X23421278Y-7656551D02*
X23430802Y-7627980D01*
X23430802Y-7627980D02*
X23440326Y-7580361D01*
X23440326Y-7580361D02*
X23440326Y-7542266D01*
X23440326Y-7542266D02*
X23430802Y-7494647D01*
X23430802Y-7494647D02*
X23421278Y-7466075D01*
X23421278Y-7466075D02*
X23411754Y-7447028D01*
X23411754Y-7447028D02*
X23392707Y-7418456D01*
X23392707Y-7418456D02*
X23383183Y-7408932D01*
D10*
X18570620Y-7772520D02*
X18570620Y-7847520D01*
X18533120Y-7810020D02*
X18608120Y-7810020D01*
D11*
X18906992Y-7701504D02*
X18926040Y-7701504D01*
X18926040Y-7701504D02*
X18945087Y-7711028D01*
X18945087Y-7711028D02*
X18954611Y-7720551D01*
X18954611Y-7720551D02*
X18964135Y-7739599D01*
X18964135Y-7739599D02*
X18973659Y-7777694D01*
X18973659Y-7777694D02*
X18973659Y-7825313D01*
X18973659Y-7825313D02*
X18964135Y-7863408D01*
X18964135Y-7863408D02*
X18954611Y-7882456D01*
X18954611Y-7882456D02*
X18945087Y-7891980D01*
X18945087Y-7891980D02*
X18926040Y-7901504D01*
X18926040Y-7901504D02*
X18906992Y-7901504D01*
X18906992Y-7901504D02*
X18887944Y-7891980D01*
X18887944Y-7891980D02*
X18878421Y-7882456D01*
X18878421Y-7882456D02*
X18868897Y-7863408D01*
X18868897Y-7863408D02*
X18859373Y-7825313D01*
X18859373Y-7825313D02*
X18859373Y-7777694D01*
X18859373Y-7777694D02*
X18868897Y-7739599D01*
X18868897Y-7739599D02*
X18878421Y-7720551D01*
X18878421Y-7720551D02*
X18887944Y-7711028D01*
X18887944Y-7711028D02*
X18906992Y-7701504D01*
X19059373Y-7882456D02*
X19068897Y-7891980D01*
X19068897Y-7891980D02*
X19059373Y-7901504D01*
X19059373Y-7901504D02*
X19049849Y-7891980D01*
X19049849Y-7891980D02*
X19059373Y-7882456D01*
X19059373Y-7882456D02*
X19059373Y-7901504D01*
X19135564Y-7701504D02*
X19268897Y-7701504D01*
X19268897Y-7701504D02*
X19183183Y-7901504D01*
X19440325Y-7701504D02*
X19345087Y-7701504D01*
X19345087Y-7701504D02*
X19335564Y-7796742D01*
X19335564Y-7796742D02*
X19345087Y-7787218D01*
X19345087Y-7787218D02*
X19364135Y-7777694D01*
X19364135Y-7777694D02*
X19411754Y-7777694D01*
X19411754Y-7777694D02*
X19430802Y-7787218D01*
X19430802Y-7787218D02*
X19440325Y-7796742D01*
X19440325Y-7796742D02*
X19449849Y-7815789D01*
X19449849Y-7815789D02*
X19449849Y-7863408D01*
X19449849Y-7863408D02*
X19440325Y-7882456D01*
X19440325Y-7882456D02*
X19430802Y-7891980D01*
X19430802Y-7891980D02*
X19411754Y-7901504D01*
X19411754Y-7901504D02*
X19364135Y-7901504D01*
X19364135Y-7901504D02*
X19345087Y-7891980D01*
X19345087Y-7891980D02*
X19335564Y-7882456D01*
X19573659Y-7701504D02*
X19592706Y-7701504D01*
X19592706Y-7701504D02*
X19611754Y-7711028D01*
X19611754Y-7711028D02*
X19621278Y-7720551D01*
X19621278Y-7720551D02*
X19630802Y-7739599D01*
X19630802Y-7739599D02*
X19640325Y-7777694D01*
X19640325Y-7777694D02*
X19640325Y-7825313D01*
X19640325Y-7825313D02*
X19630802Y-7863408D01*
X19630802Y-7863408D02*
X19621278Y-7882456D01*
X19621278Y-7882456D02*
X19611754Y-7891980D01*
X19611754Y-7891980D02*
X19592706Y-7901504D01*
X19592706Y-7901504D02*
X19573659Y-7901504D01*
X19573659Y-7901504D02*
X19554611Y-7891980D01*
X19554611Y-7891980D02*
X19545087Y-7882456D01*
X19545087Y-7882456D02*
X19535564Y-7863408D01*
X19535564Y-7863408D02*
X19526040Y-7825313D01*
X19526040Y-7825313D02*
X19526040Y-7777694D01*
X19526040Y-7777694D02*
X19535564Y-7739599D01*
X19535564Y-7739599D02*
X19545087Y-7720551D01*
X19545087Y-7720551D02*
X19554611Y-7711028D01*
X19554611Y-7711028D02*
X19573659Y-7701504D01*
X19726040Y-7901504D02*
X19726040Y-7768170D01*
X19726040Y-7787218D02*
X19735564Y-7777694D01*
X19735564Y-7777694D02*
X19754611Y-7768170D01*
X19754611Y-7768170D02*
X19783183Y-7768170D01*
X19783183Y-7768170D02*
X19802230Y-7777694D01*
X19802230Y-7777694D02*
X19811754Y-7796742D01*
X19811754Y-7796742D02*
X19811754Y-7901504D01*
X19811754Y-7796742D02*
X19821278Y-7777694D01*
X19821278Y-7777694D02*
X19840325Y-7768170D01*
X19840325Y-7768170D02*
X19868897Y-7768170D01*
X19868897Y-7768170D02*
X19887945Y-7777694D01*
X19887945Y-7777694D02*
X19897468Y-7796742D01*
X19897468Y-7796742D02*
X19897468Y-7901504D01*
X19992706Y-7901504D02*
X19992706Y-7768170D01*
X19992706Y-7787218D02*
X20002230Y-7777694D01*
X20002230Y-7777694D02*
X20021278Y-7768170D01*
X20021278Y-7768170D02*
X20049849Y-7768170D01*
X20049849Y-7768170D02*
X20068897Y-7777694D01*
X20068897Y-7777694D02*
X20078421Y-7796742D01*
X20078421Y-7796742D02*
X20078421Y-7901504D01*
X20078421Y-7796742D02*
X20087945Y-7777694D01*
X20087945Y-7777694D02*
X20106992Y-7768170D01*
X20106992Y-7768170D02*
X20135564Y-7768170D01*
X20135564Y-7768170D02*
X20154611Y-7777694D01*
X20154611Y-7777694D02*
X20164135Y-7796742D01*
X20164135Y-7796742D02*
X20164135Y-7901504D01*
X20554611Y-7691980D02*
X20383183Y-7949123D01*
X20811754Y-7701504D02*
X20830802Y-7701504D01*
X20830802Y-7701504D02*
X20849849Y-7711028D01*
X20849849Y-7711028D02*
X20859373Y-7720551D01*
X20859373Y-7720551D02*
X20868897Y-7739599D01*
X20868897Y-7739599D02*
X20878421Y-7777694D01*
X20878421Y-7777694D02*
X20878421Y-7825313D01*
X20878421Y-7825313D02*
X20868897Y-7863408D01*
X20868897Y-7863408D02*
X20859373Y-7882456D01*
X20859373Y-7882456D02*
X20849849Y-7891980D01*
X20849849Y-7891980D02*
X20830802Y-7901504D01*
X20830802Y-7901504D02*
X20811754Y-7901504D01*
X20811754Y-7901504D02*
X20792707Y-7891980D01*
X20792707Y-7891980D02*
X20783183Y-7882456D01*
X20783183Y-7882456D02*
X20773659Y-7863408D01*
X20773659Y-7863408D02*
X20764135Y-7825313D01*
X20764135Y-7825313D02*
X20764135Y-7777694D01*
X20764135Y-7777694D02*
X20773659Y-7739599D01*
X20773659Y-7739599D02*
X20783183Y-7720551D01*
X20783183Y-7720551D02*
X20792707Y-7711028D01*
X20792707Y-7711028D02*
X20811754Y-7701504D01*
X20964135Y-7882456D02*
X20973659Y-7891980D01*
X20973659Y-7891980D02*
X20964135Y-7901504D01*
X20964135Y-7901504D02*
X20954611Y-7891980D01*
X20954611Y-7891980D02*
X20964135Y-7882456D01*
X20964135Y-7882456D02*
X20964135Y-7901504D01*
X21097468Y-7701504D02*
X21116516Y-7701504D01*
X21116516Y-7701504D02*
X21135564Y-7711028D01*
X21135564Y-7711028D02*
X21145088Y-7720551D01*
X21145088Y-7720551D02*
X21154611Y-7739599D01*
X21154611Y-7739599D02*
X21164135Y-7777694D01*
X21164135Y-7777694D02*
X21164135Y-7825313D01*
X21164135Y-7825313D02*
X21154611Y-7863408D01*
X21154611Y-7863408D02*
X21145088Y-7882456D01*
X21145088Y-7882456D02*
X21135564Y-7891980D01*
X21135564Y-7891980D02*
X21116516Y-7901504D01*
X21116516Y-7901504D02*
X21097468Y-7901504D01*
X21097468Y-7901504D02*
X21078421Y-7891980D01*
X21078421Y-7891980D02*
X21068897Y-7882456D01*
X21068897Y-7882456D02*
X21059373Y-7863408D01*
X21059373Y-7863408D02*
X21049849Y-7825313D01*
X21049849Y-7825313D02*
X21049849Y-7777694D01*
X21049849Y-7777694D02*
X21059373Y-7739599D01*
X21059373Y-7739599D02*
X21068897Y-7720551D01*
X21068897Y-7720551D02*
X21078421Y-7711028D01*
X21078421Y-7711028D02*
X21097468Y-7701504D01*
X21240326Y-7720551D02*
X21249849Y-7711028D01*
X21249849Y-7711028D02*
X21268897Y-7701504D01*
X21268897Y-7701504D02*
X21316516Y-7701504D01*
X21316516Y-7701504D02*
X21335564Y-7711028D01*
X21335564Y-7711028D02*
X21345088Y-7720551D01*
X21345088Y-7720551D02*
X21354611Y-7739599D01*
X21354611Y-7739599D02*
X21354611Y-7758647D01*
X21354611Y-7758647D02*
X21345088Y-7787218D01*
X21345088Y-7787218D02*
X21230802Y-7901504D01*
X21230802Y-7901504D02*
X21354611Y-7901504D01*
X21449849Y-7901504D02*
X21487945Y-7901504D01*
X21487945Y-7901504D02*
X21506992Y-7891980D01*
X21506992Y-7891980D02*
X21516516Y-7882456D01*
X21516516Y-7882456D02*
X21535564Y-7853885D01*
X21535564Y-7853885D02*
X21545088Y-7815789D01*
X21545088Y-7815789D02*
X21545088Y-7739599D01*
X21545088Y-7739599D02*
X21535564Y-7720551D01*
X21535564Y-7720551D02*
X21526040Y-7711028D01*
X21526040Y-7711028D02*
X21506992Y-7701504D01*
X21506992Y-7701504D02*
X21468897Y-7701504D01*
X21468897Y-7701504D02*
X21449849Y-7711028D01*
X21449849Y-7711028D02*
X21440326Y-7720551D01*
X21440326Y-7720551D02*
X21430802Y-7739599D01*
X21430802Y-7739599D02*
X21430802Y-7787218D01*
X21430802Y-7787218D02*
X21440326Y-7806266D01*
X21440326Y-7806266D02*
X21449849Y-7815789D01*
X21449849Y-7815789D02*
X21468897Y-7825313D01*
X21468897Y-7825313D02*
X21506992Y-7825313D01*
X21506992Y-7825313D02*
X21526040Y-7815789D01*
X21526040Y-7815789D02*
X21535564Y-7806266D01*
X21535564Y-7806266D02*
X21545088Y-7787218D01*
X21726040Y-7701504D02*
X21630802Y-7701504D01*
X21630802Y-7701504D02*
X21621278Y-7796742D01*
X21621278Y-7796742D02*
X21630802Y-7787218D01*
X21630802Y-7787218D02*
X21649849Y-7777694D01*
X21649849Y-7777694D02*
X21697469Y-7777694D01*
X21697469Y-7777694D02*
X21716516Y-7787218D01*
X21716516Y-7787218D02*
X21726040Y-7796742D01*
X21726040Y-7796742D02*
X21735564Y-7815789D01*
X21735564Y-7815789D02*
X21735564Y-7863408D01*
X21735564Y-7863408D02*
X21726040Y-7882456D01*
X21726040Y-7882456D02*
X21716516Y-7891980D01*
X21716516Y-7891980D02*
X21697469Y-7901504D01*
X21697469Y-7901504D02*
X21649849Y-7901504D01*
X21649849Y-7901504D02*
X21630802Y-7891980D01*
X21630802Y-7891980D02*
X21621278Y-7882456D01*
X21811754Y-7701504D02*
X21811754Y-7739599D01*
X21887945Y-7701504D02*
X21887945Y-7739599D01*
X22183183Y-7977694D02*
X22173659Y-7968170D01*
X22173659Y-7968170D02*
X22154611Y-7939599D01*
X22154611Y-7939599D02*
X22145088Y-7920551D01*
X22145088Y-7920551D02*
X22135564Y-7891980D01*
X22135564Y-7891980D02*
X22126040Y-7844361D01*
X22126040Y-7844361D02*
X22126040Y-7806266D01*
X22126040Y-7806266D02*
X22135564Y-7758647D01*
X22135564Y-7758647D02*
X22145088Y-7730075D01*
X22145088Y-7730075D02*
X22154611Y-7711028D01*
X22154611Y-7711028D02*
X22173659Y-7682456D01*
X22173659Y-7682456D02*
X22183183Y-7672932D01*
X22364135Y-7901504D02*
X22249850Y-7901504D01*
X22306992Y-7901504D02*
X22306992Y-7701504D01*
X22306992Y-7701504D02*
X22287945Y-7730075D01*
X22287945Y-7730075D02*
X22268897Y-7749123D01*
X22268897Y-7749123D02*
X22249850Y-7758647D01*
X22440326Y-7720551D02*
X22449849Y-7711028D01*
X22449849Y-7711028D02*
X22468897Y-7701504D01*
X22468897Y-7701504D02*
X22516516Y-7701504D01*
X22516516Y-7701504D02*
X22535564Y-7711028D01*
X22535564Y-7711028D02*
X22545088Y-7720551D01*
X22545088Y-7720551D02*
X22554611Y-7739599D01*
X22554611Y-7739599D02*
X22554611Y-7758647D01*
X22554611Y-7758647D02*
X22545088Y-7787218D01*
X22545088Y-7787218D02*
X22430802Y-7901504D01*
X22430802Y-7901504D02*
X22554611Y-7901504D01*
X22792707Y-7901504D02*
X22792707Y-7701504D01*
X22878421Y-7901504D02*
X22878421Y-7796742D01*
X22878421Y-7796742D02*
X22868897Y-7777694D01*
X22868897Y-7777694D02*
X22849850Y-7768170D01*
X22849850Y-7768170D02*
X22821278Y-7768170D01*
X22821278Y-7768170D02*
X22802230Y-7777694D01*
X22802230Y-7777694D02*
X22792707Y-7787218D01*
X23002230Y-7901504D02*
X22983183Y-7891980D01*
X22983183Y-7891980D02*
X22973659Y-7882456D01*
X22973659Y-7882456D02*
X22964135Y-7863408D01*
X22964135Y-7863408D02*
X22964135Y-7806266D01*
X22964135Y-7806266D02*
X22973659Y-7787218D01*
X22973659Y-7787218D02*
X22983183Y-7777694D01*
X22983183Y-7777694D02*
X23002230Y-7768170D01*
X23002230Y-7768170D02*
X23030802Y-7768170D01*
X23030802Y-7768170D02*
X23049850Y-7777694D01*
X23049850Y-7777694D02*
X23059373Y-7787218D01*
X23059373Y-7787218D02*
X23068897Y-7806266D01*
X23068897Y-7806266D02*
X23068897Y-7863408D01*
X23068897Y-7863408D02*
X23059373Y-7882456D01*
X23059373Y-7882456D02*
X23049850Y-7891980D01*
X23049850Y-7891980D02*
X23030802Y-7901504D01*
X23030802Y-7901504D02*
X23002230Y-7901504D01*
X23183183Y-7901504D02*
X23164135Y-7891980D01*
X23164135Y-7891980D02*
X23154611Y-7872932D01*
X23154611Y-7872932D02*
X23154611Y-7701504D01*
X23335564Y-7891980D02*
X23316516Y-7901504D01*
X23316516Y-7901504D02*
X23278421Y-7901504D01*
X23278421Y-7901504D02*
X23259373Y-7891980D01*
X23259373Y-7891980D02*
X23249850Y-7872932D01*
X23249850Y-7872932D02*
X23249850Y-7796742D01*
X23249850Y-7796742D02*
X23259373Y-7777694D01*
X23259373Y-7777694D02*
X23278421Y-7768170D01*
X23278421Y-7768170D02*
X23316516Y-7768170D01*
X23316516Y-7768170D02*
X23335564Y-7777694D01*
X23335564Y-7777694D02*
X23345088Y-7796742D01*
X23345088Y-7796742D02*
X23345088Y-7815789D01*
X23345088Y-7815789D02*
X23249850Y-7834837D01*
X23421278Y-7891980D02*
X23440326Y-7901504D01*
X23440326Y-7901504D02*
X23478421Y-7901504D01*
X23478421Y-7901504D02*
X23497469Y-7891980D01*
X23497469Y-7891980D02*
X23506992Y-7872932D01*
X23506992Y-7872932D02*
X23506992Y-7863408D01*
X23506992Y-7863408D02*
X23497469Y-7844361D01*
X23497469Y-7844361D02*
X23478421Y-7834837D01*
X23478421Y-7834837D02*
X23449850Y-7834837D01*
X23449850Y-7834837D02*
X23430802Y-7825313D01*
X23430802Y-7825313D02*
X23421278Y-7806266D01*
X23421278Y-7806266D02*
X23421278Y-7796742D01*
X23421278Y-7796742D02*
X23430802Y-7777694D01*
X23430802Y-7777694D02*
X23449850Y-7768170D01*
X23449850Y-7768170D02*
X23478421Y-7768170D01*
X23478421Y-7768170D02*
X23497469Y-7777694D01*
X23573659Y-7977694D02*
X23583183Y-7968170D01*
X23583183Y-7968170D02*
X23602231Y-7939599D01*
X23602231Y-7939599D02*
X23611754Y-7920551D01*
X23611754Y-7920551D02*
X23621278Y-7891980D01*
X23621278Y-7891980D02*
X23630802Y-7844361D01*
X23630802Y-7844361D02*
X23630802Y-7806266D01*
X23630802Y-7806266D02*
X23621278Y-7758647D01*
X23621278Y-7758647D02*
X23611754Y-7730075D01*
X23611754Y-7730075D02*
X23602231Y-7711028D01*
X23602231Y-7711028D02*
X23583183Y-7682456D01*
X23583183Y-7682456D02*
X23573659Y-7672932D01*
D12*
X18586154Y-8127053D02*
X18586154Y-8020986D01*
X18480087Y-8020986D01*
X18480087Y-8127053D01*
X18586154Y-8127053D01*
D11*
X18973659Y-8165504D02*
X18859373Y-8165504D01*
X18916516Y-8165504D02*
X18916516Y-7965504D01*
X18916516Y-7965504D02*
X18897468Y-7994075D01*
X18897468Y-7994075D02*
X18878421Y-8013123D01*
X18878421Y-8013123D02*
X18859373Y-8022647D01*
X19059373Y-8146456D02*
X19068897Y-8155980D01*
X19068897Y-8155980D02*
X19059373Y-8165504D01*
X19059373Y-8165504D02*
X19049849Y-8155980D01*
X19049849Y-8155980D02*
X19059373Y-8146456D01*
X19059373Y-8146456D02*
X19059373Y-8165504D01*
X19249849Y-7965504D02*
X19154611Y-7965504D01*
X19154611Y-7965504D02*
X19145087Y-8060742D01*
X19145087Y-8060742D02*
X19154611Y-8051218D01*
X19154611Y-8051218D02*
X19173659Y-8041694D01*
X19173659Y-8041694D02*
X19221278Y-8041694D01*
X19221278Y-8041694D02*
X19240325Y-8051218D01*
X19240325Y-8051218D02*
X19249849Y-8060742D01*
X19249849Y-8060742D02*
X19259373Y-8079789D01*
X19259373Y-8079789D02*
X19259373Y-8127408D01*
X19259373Y-8127408D02*
X19249849Y-8146456D01*
X19249849Y-8146456D02*
X19240325Y-8155980D01*
X19240325Y-8155980D02*
X19221278Y-8165504D01*
X19221278Y-8165504D02*
X19173659Y-8165504D01*
X19173659Y-8165504D02*
X19154611Y-8155980D01*
X19154611Y-8155980D02*
X19145087Y-8146456D01*
X19383183Y-7965504D02*
X19402230Y-7965504D01*
X19402230Y-7965504D02*
X19421278Y-7975028D01*
X19421278Y-7975028D02*
X19430802Y-7984551D01*
X19430802Y-7984551D02*
X19440325Y-8003599D01*
X19440325Y-8003599D02*
X19449849Y-8041694D01*
X19449849Y-8041694D02*
X19449849Y-8089313D01*
X19449849Y-8089313D02*
X19440325Y-8127408D01*
X19440325Y-8127408D02*
X19430802Y-8146456D01*
X19430802Y-8146456D02*
X19421278Y-8155980D01*
X19421278Y-8155980D02*
X19402230Y-8165504D01*
X19402230Y-8165504D02*
X19383183Y-8165504D01*
X19383183Y-8165504D02*
X19364135Y-8155980D01*
X19364135Y-8155980D02*
X19354611Y-8146456D01*
X19354611Y-8146456D02*
X19345087Y-8127408D01*
X19345087Y-8127408D02*
X19335564Y-8089313D01*
X19335564Y-8089313D02*
X19335564Y-8041694D01*
X19335564Y-8041694D02*
X19345087Y-8003599D01*
X19345087Y-8003599D02*
X19354611Y-7984551D01*
X19354611Y-7984551D02*
X19364135Y-7975028D01*
X19364135Y-7975028D02*
X19383183Y-7965504D01*
X19573659Y-7965504D02*
X19592706Y-7965504D01*
X19592706Y-7965504D02*
X19611754Y-7975028D01*
X19611754Y-7975028D02*
X19621278Y-7984551D01*
X19621278Y-7984551D02*
X19630802Y-8003599D01*
X19630802Y-8003599D02*
X19640325Y-8041694D01*
X19640325Y-8041694D02*
X19640325Y-8089313D01*
X19640325Y-8089313D02*
X19630802Y-8127408D01*
X19630802Y-8127408D02*
X19621278Y-8146456D01*
X19621278Y-8146456D02*
X19611754Y-8155980D01*
X19611754Y-8155980D02*
X19592706Y-8165504D01*
X19592706Y-8165504D02*
X19573659Y-8165504D01*
X19573659Y-8165504D02*
X19554611Y-8155980D01*
X19554611Y-8155980D02*
X19545087Y-8146456D01*
X19545087Y-8146456D02*
X19535564Y-8127408D01*
X19535564Y-8127408D02*
X19526040Y-8089313D01*
X19526040Y-8089313D02*
X19526040Y-8041694D01*
X19526040Y-8041694D02*
X19535564Y-8003599D01*
X19535564Y-8003599D02*
X19545087Y-7984551D01*
X19545087Y-7984551D02*
X19554611Y-7975028D01*
X19554611Y-7975028D02*
X19573659Y-7965504D01*
X19726040Y-8165504D02*
X19726040Y-8032170D01*
X19726040Y-8051218D02*
X19735564Y-8041694D01*
X19735564Y-8041694D02*
X19754611Y-8032170D01*
X19754611Y-8032170D02*
X19783183Y-8032170D01*
X19783183Y-8032170D02*
X19802230Y-8041694D01*
X19802230Y-8041694D02*
X19811754Y-8060742D01*
X19811754Y-8060742D02*
X19811754Y-8165504D01*
X19811754Y-8060742D02*
X19821278Y-8041694D01*
X19821278Y-8041694D02*
X19840325Y-8032170D01*
X19840325Y-8032170D02*
X19868897Y-8032170D01*
X19868897Y-8032170D02*
X19887945Y-8041694D01*
X19887945Y-8041694D02*
X19897468Y-8060742D01*
X19897468Y-8060742D02*
X19897468Y-8165504D01*
X19992706Y-8165504D02*
X19992706Y-8032170D01*
X19992706Y-8051218D02*
X20002230Y-8041694D01*
X20002230Y-8041694D02*
X20021278Y-8032170D01*
X20021278Y-8032170D02*
X20049849Y-8032170D01*
X20049849Y-8032170D02*
X20068897Y-8041694D01*
X20068897Y-8041694D02*
X20078421Y-8060742D01*
X20078421Y-8060742D02*
X20078421Y-8165504D01*
X20078421Y-8060742D02*
X20087945Y-8041694D01*
X20087945Y-8041694D02*
X20106992Y-8032170D01*
X20106992Y-8032170D02*
X20135564Y-8032170D01*
X20135564Y-8032170D02*
X20154611Y-8041694D01*
X20154611Y-8041694D02*
X20164135Y-8060742D01*
X20164135Y-8060742D02*
X20164135Y-8165504D01*
X20554611Y-7955980D02*
X20383183Y-8213123D01*
X20811754Y-7965504D02*
X20830802Y-7965504D01*
X20830802Y-7965504D02*
X20849849Y-7975028D01*
X20849849Y-7975028D02*
X20859373Y-7984551D01*
X20859373Y-7984551D02*
X20868897Y-8003599D01*
X20868897Y-8003599D02*
X20878421Y-8041694D01*
X20878421Y-8041694D02*
X20878421Y-8089313D01*
X20878421Y-8089313D02*
X20868897Y-8127408D01*
X20868897Y-8127408D02*
X20859373Y-8146456D01*
X20859373Y-8146456D02*
X20849849Y-8155980D01*
X20849849Y-8155980D02*
X20830802Y-8165504D01*
X20830802Y-8165504D02*
X20811754Y-8165504D01*
X20811754Y-8165504D02*
X20792707Y-8155980D01*
X20792707Y-8155980D02*
X20783183Y-8146456D01*
X20783183Y-8146456D02*
X20773659Y-8127408D01*
X20773659Y-8127408D02*
X20764135Y-8089313D01*
X20764135Y-8089313D02*
X20764135Y-8041694D01*
X20764135Y-8041694D02*
X20773659Y-8003599D01*
X20773659Y-8003599D02*
X20783183Y-7984551D01*
X20783183Y-7984551D02*
X20792707Y-7975028D01*
X20792707Y-7975028D02*
X20811754Y-7965504D01*
X20964135Y-8146456D02*
X20973659Y-8155980D01*
X20973659Y-8155980D02*
X20964135Y-8165504D01*
X20964135Y-8165504D02*
X20954611Y-8155980D01*
X20954611Y-8155980D02*
X20964135Y-8146456D01*
X20964135Y-8146456D02*
X20964135Y-8165504D01*
X21097468Y-7965504D02*
X21116516Y-7965504D01*
X21116516Y-7965504D02*
X21135564Y-7975028D01*
X21135564Y-7975028D02*
X21145088Y-7984551D01*
X21145088Y-7984551D02*
X21154611Y-8003599D01*
X21154611Y-8003599D02*
X21164135Y-8041694D01*
X21164135Y-8041694D02*
X21164135Y-8089313D01*
X21164135Y-8089313D02*
X21154611Y-8127408D01*
X21154611Y-8127408D02*
X21145088Y-8146456D01*
X21145088Y-8146456D02*
X21135564Y-8155980D01*
X21135564Y-8155980D02*
X21116516Y-8165504D01*
X21116516Y-8165504D02*
X21097468Y-8165504D01*
X21097468Y-8165504D02*
X21078421Y-8155980D01*
X21078421Y-8155980D02*
X21068897Y-8146456D01*
X21068897Y-8146456D02*
X21059373Y-8127408D01*
X21059373Y-8127408D02*
X21049849Y-8089313D01*
X21049849Y-8089313D02*
X21049849Y-8041694D01*
X21049849Y-8041694D02*
X21059373Y-8003599D01*
X21059373Y-8003599D02*
X21068897Y-7984551D01*
X21068897Y-7984551D02*
X21078421Y-7975028D01*
X21078421Y-7975028D02*
X21097468Y-7965504D01*
X21345088Y-7965504D02*
X21249849Y-7965504D01*
X21249849Y-7965504D02*
X21240326Y-8060742D01*
X21240326Y-8060742D02*
X21249849Y-8051218D01*
X21249849Y-8051218D02*
X21268897Y-8041694D01*
X21268897Y-8041694D02*
X21316516Y-8041694D01*
X21316516Y-8041694D02*
X21335564Y-8051218D01*
X21335564Y-8051218D02*
X21345088Y-8060742D01*
X21345088Y-8060742D02*
X21354611Y-8079789D01*
X21354611Y-8079789D02*
X21354611Y-8127408D01*
X21354611Y-8127408D02*
X21345088Y-8146456D01*
X21345088Y-8146456D02*
X21335564Y-8155980D01*
X21335564Y-8155980D02*
X21316516Y-8165504D01*
X21316516Y-8165504D02*
X21268897Y-8165504D01*
X21268897Y-8165504D02*
X21249849Y-8155980D01*
X21249849Y-8155980D02*
X21240326Y-8146456D01*
X21449849Y-8165504D02*
X21487945Y-8165504D01*
X21487945Y-8165504D02*
X21506992Y-8155980D01*
X21506992Y-8155980D02*
X21516516Y-8146456D01*
X21516516Y-8146456D02*
X21535564Y-8117885D01*
X21535564Y-8117885D02*
X21545088Y-8079789D01*
X21545088Y-8079789D02*
X21545088Y-8003599D01*
X21545088Y-8003599D02*
X21535564Y-7984551D01*
X21535564Y-7984551D02*
X21526040Y-7975028D01*
X21526040Y-7975028D02*
X21506992Y-7965504D01*
X21506992Y-7965504D02*
X21468897Y-7965504D01*
X21468897Y-7965504D02*
X21449849Y-7975028D01*
X21449849Y-7975028D02*
X21440326Y-7984551D01*
X21440326Y-7984551D02*
X21430802Y-8003599D01*
X21430802Y-8003599D02*
X21430802Y-8051218D01*
X21430802Y-8051218D02*
X21440326Y-8070266D01*
X21440326Y-8070266D02*
X21449849Y-8079789D01*
X21449849Y-8079789D02*
X21468897Y-8089313D01*
X21468897Y-8089313D02*
X21506992Y-8089313D01*
X21506992Y-8089313D02*
X21526040Y-8079789D01*
X21526040Y-8079789D02*
X21535564Y-8070266D01*
X21535564Y-8070266D02*
X21545088Y-8051218D01*
X21735564Y-8165504D02*
X21621278Y-8165504D01*
X21678421Y-8165504D02*
X21678421Y-7965504D01*
X21678421Y-7965504D02*
X21659373Y-7994075D01*
X21659373Y-7994075D02*
X21640326Y-8013123D01*
X21640326Y-8013123D02*
X21621278Y-8022647D01*
X21811754Y-7965504D02*
X21811754Y-8003599D01*
X21887945Y-7965504D02*
X21887945Y-8003599D01*
X22183183Y-8241694D02*
X22173659Y-8232170D01*
X22173659Y-8232170D02*
X22154611Y-8203599D01*
X22154611Y-8203599D02*
X22145088Y-8184551D01*
X22145088Y-8184551D02*
X22135564Y-8155980D01*
X22135564Y-8155980D02*
X22126040Y-8108361D01*
X22126040Y-8108361D02*
X22126040Y-8070266D01*
X22126040Y-8070266D02*
X22135564Y-8022647D01*
X22135564Y-8022647D02*
X22145088Y-7994075D01*
X22145088Y-7994075D02*
X22154611Y-7975028D01*
X22154611Y-7975028D02*
X22173659Y-7946456D01*
X22173659Y-7946456D02*
X22183183Y-7936932D01*
X22249850Y-7984551D02*
X22259373Y-7975028D01*
X22259373Y-7975028D02*
X22278421Y-7965504D01*
X22278421Y-7965504D02*
X22326040Y-7965504D01*
X22326040Y-7965504D02*
X22345088Y-7975028D01*
X22345088Y-7975028D02*
X22354611Y-7984551D01*
X22354611Y-7984551D02*
X22364135Y-8003599D01*
X22364135Y-8003599D02*
X22364135Y-8022647D01*
X22364135Y-8022647D02*
X22354611Y-8051218D01*
X22354611Y-8051218D02*
X22240326Y-8165504D01*
X22240326Y-8165504D02*
X22364135Y-8165504D01*
X22602230Y-8165504D02*
X22602230Y-7965504D01*
X22687945Y-8165504D02*
X22687945Y-8060742D01*
X22687945Y-8060742D02*
X22678421Y-8041694D01*
X22678421Y-8041694D02*
X22659373Y-8032170D01*
X22659373Y-8032170D02*
X22630802Y-8032170D01*
X22630802Y-8032170D02*
X22611754Y-8041694D01*
X22611754Y-8041694D02*
X22602230Y-8051218D01*
X22811754Y-8165504D02*
X22792707Y-8155980D01*
X22792707Y-8155980D02*
X22783183Y-8146456D01*
X22783183Y-8146456D02*
X22773659Y-8127408D01*
X22773659Y-8127408D02*
X22773659Y-8070266D01*
X22773659Y-8070266D02*
X22783183Y-8051218D01*
X22783183Y-8051218D02*
X22792707Y-8041694D01*
X22792707Y-8041694D02*
X22811754Y-8032170D01*
X22811754Y-8032170D02*
X22840326Y-8032170D01*
X22840326Y-8032170D02*
X22859373Y-8041694D01*
X22859373Y-8041694D02*
X22868897Y-8051218D01*
X22868897Y-8051218D02*
X22878421Y-8070266D01*
X22878421Y-8070266D02*
X22878421Y-8127408D01*
X22878421Y-8127408D02*
X22868897Y-8146456D01*
X22868897Y-8146456D02*
X22859373Y-8155980D01*
X22859373Y-8155980D02*
X22840326Y-8165504D01*
X22840326Y-8165504D02*
X22811754Y-8165504D01*
X22992707Y-8165504D02*
X22973659Y-8155980D01*
X22973659Y-8155980D02*
X22964135Y-8136932D01*
X22964135Y-8136932D02*
X22964135Y-7965504D01*
X23145088Y-8155980D02*
X23126040Y-8165504D01*
X23126040Y-8165504D02*
X23087945Y-8165504D01*
X23087945Y-8165504D02*
X23068897Y-8155980D01*
X23068897Y-8155980D02*
X23059373Y-8136932D01*
X23059373Y-8136932D02*
X23059373Y-8060742D01*
X23059373Y-8060742D02*
X23068897Y-8041694D01*
X23068897Y-8041694D02*
X23087945Y-8032170D01*
X23087945Y-8032170D02*
X23126040Y-8032170D01*
X23126040Y-8032170D02*
X23145088Y-8041694D01*
X23145088Y-8041694D02*
X23154611Y-8060742D01*
X23154611Y-8060742D02*
X23154611Y-8079789D01*
X23154611Y-8079789D02*
X23059373Y-8098837D01*
X23230802Y-8155980D02*
X23249850Y-8165504D01*
X23249850Y-8165504D02*
X23287945Y-8165504D01*
X23287945Y-8165504D02*
X23306992Y-8155980D01*
X23306992Y-8155980D02*
X23316516Y-8136932D01*
X23316516Y-8136932D02*
X23316516Y-8127408D01*
X23316516Y-8127408D02*
X23306992Y-8108361D01*
X23306992Y-8108361D02*
X23287945Y-8098837D01*
X23287945Y-8098837D02*
X23259373Y-8098837D01*
X23259373Y-8098837D02*
X23240326Y-8089313D01*
X23240326Y-8089313D02*
X23230802Y-8070266D01*
X23230802Y-8070266D02*
X23230802Y-8060742D01*
X23230802Y-8060742D02*
X23240326Y-8041694D01*
X23240326Y-8041694D02*
X23259373Y-8032170D01*
X23259373Y-8032170D02*
X23287945Y-8032170D01*
X23287945Y-8032170D02*
X23306992Y-8041694D01*
X23383183Y-8241694D02*
X23392707Y-8232170D01*
X23392707Y-8232170D02*
X23411754Y-8203599D01*
X23411754Y-8203599D02*
X23421278Y-8184551D01*
X23421278Y-8184551D02*
X23430802Y-8155980D01*
X23430802Y-8155980D02*
X23440326Y-8108361D01*
X23440326Y-8108361D02*
X23440326Y-8070266D01*
X23440326Y-8070266D02*
X23430802Y-8022647D01*
X23430802Y-8022647D02*
X23421278Y-7994075D01*
X23421278Y-7994075D02*
X23411754Y-7975028D01*
X23411754Y-7975028D02*
X23392707Y-7946456D01*
X23392707Y-7946456D02*
X23383183Y-7936932D01*
M02*
