M48
; DRILL file {KiCad 7.0.9} date Wed Jan 10 19:06:43 2024
; FORMAT={-:-/ absolute / inch / decimal}
; #@! TF.CreationDate,2024-01-10T19:06:43-08:00
; #@! TF.GenerationSoftware,Kicad,Pcbnew,7.0.9
; #@! TF.FileFunction,Plated,1,2,PTH
FMAT,2
INCH
; #@! TA.AperFunction,Plated,PTH,ViaDrill
T1C0.0157
; #@! TA.AperFunction,Plated,PTH,ComponentDrill
T2C0.0276
; #@! TA.AperFunction,Plated,PTH,ComponentDrill
T3C0.0295
; #@! TA.AperFunction,Plated,PTH,ComponentDrill
T4C0.0591
%
G90
G05
T1
X7.62Y-2.33
X7.6718Y-2.3998
T2
X7.4Y-1.5
X7.4Y-2.31
X7.7Y-1.5
X7.7Y-2.31
T3
X7.4897Y-1.6925
X7.4897Y-1.7713
X7.4897Y-1.85
X7.4897Y-1.9287
X7.4897Y-2.0075
X7.4897Y-2.0862
X7.5881Y-1.6925
X7.5881Y-1.7713
X7.5881Y-1.85
X7.5881Y-1.9287
X7.5881Y-2.0075
X7.5881Y-2.0862
T4
X7.4287Y-2.1492
X7.6491Y-1.6295
T0
M30
