%TF.GenerationSoftware,KiCad,Pcbnew,7.0.9*%
%TF.CreationDate,2024-01-10T19:06:40-08:00*%
%TF.ProjectId,CANswitch,43414e73-7769-4746-9368-2e6b69636164,rev?*%
%TF.SameCoordinates,Original*%
%TF.FileFunction,Legend,Bot*%
%TF.FilePolarity,Positive*%
%FSLAX46Y46*%
G04 Gerber Fmt 4.6, Leading zero omitted, Abs format (unit mm)*
G04 Created by KiCad (PCBNEW 7.0.9) date 2024-01-10 19:06:40*
%MOMM*%
%LPD*%
G01*
G04 APERTURE LIST*
%ADD10C,0.150000*%
G04 APERTURE END LIST*
D10*
X193974800Y-61133800D02*
X194178000Y-61133800D01*
X195987942Y-64228570D02*
X196876942Y-63339570D01*
X195046600Y-63296800D02*
X195046600Y-65049400D01*
X194990798Y-60524206D02*
G75*
G03*
X194718175Y-61667199I-172798J-562794D01*
G01*
X194311542Y-64228570D02*
G75*
G03*
X194311542Y-64228570I-965200J0D01*
G01*
X194965400Y-60041600D02*
X194762200Y-60448000D01*
X194000200Y-60705240D02*
X194245379Y-60950419D01*
X197099000Y-61667200D02*
X196390882Y-61760681D01*
X195417418Y-63465478D02*
G75*
G03*
X194887100Y-60498800I-534018J1435278D01*
G01*
X196978542Y-65219170D02*
X195987942Y-64228570D01*
X197073600Y-62276800D02*
X196438600Y-62251400D01*
X194311542Y-64228570D02*
X195987942Y-64228570D01*
X195442505Y-63439705D02*
G75*
G03*
X194711400Y-61674661I-731105J731105D01*
G01*
X195227707Y-60498800D02*
X194965400Y-60041600D01*
X195987942Y-64228570D02*
X196978542Y-65219170D01*
X194300287Y-31965409D02*
X194633620Y-31965409D01*
X194633620Y-32489219D02*
X194633620Y-31489219D01*
X194633620Y-31489219D02*
X194157430Y-31489219D01*
X193633620Y-32489219D02*
X193728858Y-32441600D01*
X193728858Y-32441600D02*
X193776477Y-32346361D01*
X193776477Y-32346361D02*
X193776477Y-31489219D01*
X192824096Y-32489219D02*
X192824096Y-31965409D01*
X192824096Y-31965409D02*
X192871715Y-31870171D01*
X192871715Y-31870171D02*
X192966953Y-31822552D01*
X192966953Y-31822552D02*
X193157429Y-31822552D01*
X193157429Y-31822552D02*
X193252667Y-31870171D01*
X192824096Y-32441600D02*
X192919334Y-32489219D01*
X192919334Y-32489219D02*
X193157429Y-32489219D01*
X193157429Y-32489219D02*
X193252667Y-32441600D01*
X193252667Y-32441600D02*
X193300286Y-32346361D01*
X193300286Y-32346361D02*
X193300286Y-32251123D01*
X193300286Y-32251123D02*
X193252667Y-32155885D01*
X193252667Y-32155885D02*
X193157429Y-32108266D01*
X193157429Y-32108266D02*
X192919334Y-32108266D01*
X192919334Y-32108266D02*
X192824096Y-32060647D01*
X192347905Y-32489219D02*
X192347905Y-31822552D01*
X192347905Y-31917790D02*
X192300286Y-31870171D01*
X192300286Y-31870171D02*
X192205048Y-31822552D01*
X192205048Y-31822552D02*
X192062191Y-31822552D01*
X192062191Y-31822552D02*
X191966953Y-31870171D01*
X191966953Y-31870171D02*
X191919334Y-31965409D01*
X191919334Y-31965409D02*
X191919334Y-32489219D01*
X191919334Y-31965409D02*
X191871715Y-31870171D01*
X191871715Y-31870171D02*
X191776477Y-31822552D01*
X191776477Y-31822552D02*
X191633620Y-31822552D01*
X191633620Y-31822552D02*
X191538381Y-31870171D01*
X191538381Y-31870171D02*
X191490762Y-31965409D01*
X191490762Y-31965409D02*
X191490762Y-32489219D01*
X191014572Y-32489219D02*
X191014572Y-31822552D01*
X191014572Y-31489219D02*
X191062191Y-31536838D01*
X191062191Y-31536838D02*
X191014572Y-31584457D01*
X191014572Y-31584457D02*
X190966953Y-31536838D01*
X190966953Y-31536838D02*
X191014572Y-31489219D01*
X191014572Y-31489219D02*
X191014572Y-31584457D01*
X190538382Y-31822552D02*
X190538382Y-32489219D01*
X190538382Y-31917790D02*
X190490763Y-31870171D01*
X190490763Y-31870171D02*
X190395525Y-31822552D01*
X190395525Y-31822552D02*
X190252668Y-31822552D01*
X190252668Y-31822552D02*
X190157430Y-31870171D01*
X190157430Y-31870171D02*
X190109811Y-31965409D01*
X190109811Y-31965409D02*
X190109811Y-32489219D01*
X189205049Y-31822552D02*
X189205049Y-32632076D01*
X189205049Y-32632076D02*
X189252668Y-32727314D01*
X189252668Y-32727314D02*
X189300287Y-32774933D01*
X189300287Y-32774933D02*
X189395525Y-32822552D01*
X189395525Y-32822552D02*
X189538382Y-32822552D01*
X189538382Y-32822552D02*
X189633620Y-32774933D01*
X189205049Y-32441600D02*
X189300287Y-32489219D01*
X189300287Y-32489219D02*
X189490763Y-32489219D01*
X189490763Y-32489219D02*
X189586001Y-32441600D01*
X189586001Y-32441600D02*
X189633620Y-32393980D01*
X189633620Y-32393980D02*
X189681239Y-32298742D01*
X189681239Y-32298742D02*
X189681239Y-32013028D01*
X189681239Y-32013028D02*
X189633620Y-31917790D01*
X189633620Y-31917790D02*
X189586001Y-31870171D01*
X189586001Y-31870171D02*
X189490763Y-31822552D01*
X189490763Y-31822552D02*
X189300287Y-31822552D01*
X189300287Y-31822552D02*
X189205049Y-31870171D01*
X194062192Y-34003980D02*
X194109811Y-34051600D01*
X194109811Y-34051600D02*
X194252668Y-34099219D01*
X194252668Y-34099219D02*
X194347906Y-34099219D01*
X194347906Y-34099219D02*
X194490763Y-34051600D01*
X194490763Y-34051600D02*
X194586001Y-33956361D01*
X194586001Y-33956361D02*
X194633620Y-33861123D01*
X194633620Y-33861123D02*
X194681239Y-33670647D01*
X194681239Y-33670647D02*
X194681239Y-33527790D01*
X194681239Y-33527790D02*
X194633620Y-33337314D01*
X194633620Y-33337314D02*
X194586001Y-33242076D01*
X194586001Y-33242076D02*
X194490763Y-33146838D01*
X194490763Y-33146838D02*
X194347906Y-33099219D01*
X194347906Y-33099219D02*
X194252668Y-33099219D01*
X194252668Y-33099219D02*
X194109811Y-33146838D01*
X194109811Y-33146838D02*
X194062192Y-33194457D01*
X193633620Y-34099219D02*
X193633620Y-33099219D01*
X193205049Y-34099219D02*
X193205049Y-33575409D01*
X193205049Y-33575409D02*
X193252668Y-33480171D01*
X193252668Y-33480171D02*
X193347906Y-33432552D01*
X193347906Y-33432552D02*
X193490763Y-33432552D01*
X193490763Y-33432552D02*
X193586001Y-33480171D01*
X193586001Y-33480171D02*
X193633620Y-33527790D01*
X192728858Y-34099219D02*
X192728858Y-33432552D01*
X192728858Y-33099219D02*
X192776477Y-33146838D01*
X192776477Y-33146838D02*
X192728858Y-33194457D01*
X192728858Y-33194457D02*
X192681239Y-33146838D01*
X192681239Y-33146838D02*
X192728858Y-33099219D01*
X192728858Y-33099219D02*
X192728858Y-33194457D01*
X191824097Y-34051600D02*
X191919335Y-34099219D01*
X191919335Y-34099219D02*
X192109811Y-34099219D01*
X192109811Y-34099219D02*
X192205049Y-34051600D01*
X192205049Y-34051600D02*
X192252668Y-34003980D01*
X192252668Y-34003980D02*
X192300287Y-33908742D01*
X192300287Y-33908742D02*
X192300287Y-33623028D01*
X192300287Y-33623028D02*
X192252668Y-33527790D01*
X192252668Y-33527790D02*
X192205049Y-33480171D01*
X192205049Y-33480171D02*
X192109811Y-33432552D01*
X192109811Y-33432552D02*
X191919335Y-33432552D01*
X191919335Y-33432552D02*
X191824097Y-33480171D01*
X191395525Y-34099219D02*
X191395525Y-33099219D01*
X191300287Y-33718266D02*
X191014573Y-34099219D01*
X191014573Y-33432552D02*
X191395525Y-33813504D01*
X190205049Y-34051600D02*
X190300287Y-34099219D01*
X190300287Y-34099219D02*
X190490763Y-34099219D01*
X190490763Y-34099219D02*
X190586001Y-34051600D01*
X190586001Y-34051600D02*
X190633620Y-33956361D01*
X190633620Y-33956361D02*
X190633620Y-33575409D01*
X190633620Y-33575409D02*
X190586001Y-33480171D01*
X190586001Y-33480171D02*
X190490763Y-33432552D01*
X190490763Y-33432552D02*
X190300287Y-33432552D01*
X190300287Y-33432552D02*
X190205049Y-33480171D01*
X190205049Y-33480171D02*
X190157430Y-33575409D01*
X190157430Y-33575409D02*
X190157430Y-33670647D01*
X190157430Y-33670647D02*
X190633620Y-33765885D01*
X189728858Y-33432552D02*
X189728858Y-34099219D01*
X189728858Y-33527790D02*
X189681239Y-33480171D01*
X189681239Y-33480171D02*
X189586001Y-33432552D01*
X189586001Y-33432552D02*
X189443144Y-33432552D01*
X189443144Y-33432552D02*
X189347906Y-33480171D01*
X189347906Y-33480171D02*
X189300287Y-33575409D01*
X189300287Y-33575409D02*
X189300287Y-34099219D01*
X188871715Y-34051600D02*
X188776477Y-34099219D01*
X188776477Y-34099219D02*
X188586001Y-34099219D01*
X188586001Y-34099219D02*
X188490763Y-34051600D01*
X188490763Y-34051600D02*
X188443144Y-33956361D01*
X188443144Y-33956361D02*
X188443144Y-33908742D01*
X188443144Y-33908742D02*
X188490763Y-33813504D01*
X188490763Y-33813504D02*
X188586001Y-33765885D01*
X188586001Y-33765885D02*
X188728858Y-33765885D01*
X188728858Y-33765885D02*
X188824096Y-33718266D01*
X188824096Y-33718266D02*
X188871715Y-33623028D01*
X188871715Y-33623028D02*
X188871715Y-33575409D01*
X188871715Y-33575409D02*
X188824096Y-33480171D01*
X188824096Y-33480171D02*
X188728858Y-33432552D01*
X188728858Y-33432552D02*
X188586001Y-33432552D01*
X188586001Y-33432552D02*
X188490763Y-33480171D01*
X194109811Y-35709219D02*
X194681239Y-35709219D01*
X194395525Y-35709219D02*
X194395525Y-34709219D01*
X194395525Y-34709219D02*
X194490763Y-34852076D01*
X194490763Y-34852076D02*
X194586001Y-34947314D01*
X194586001Y-34947314D02*
X194681239Y-34994933D01*
X193205049Y-34709219D02*
X193681239Y-34709219D01*
X193681239Y-34709219D02*
X193728858Y-35185409D01*
X193728858Y-35185409D02*
X193681239Y-35137790D01*
X193681239Y-35137790D02*
X193586001Y-35090171D01*
X193586001Y-35090171D02*
X193347906Y-35090171D01*
X193347906Y-35090171D02*
X193252668Y-35137790D01*
X193252668Y-35137790D02*
X193205049Y-35185409D01*
X193205049Y-35185409D02*
X193157430Y-35280647D01*
X193157430Y-35280647D02*
X193157430Y-35518742D01*
X193157430Y-35518742D02*
X193205049Y-35613980D01*
X193205049Y-35613980D02*
X193252668Y-35661600D01*
X193252668Y-35661600D02*
X193347906Y-35709219D01*
X193347906Y-35709219D02*
X193586001Y-35709219D01*
X193586001Y-35709219D02*
X193681239Y-35661600D01*
X193681239Y-35661600D02*
X193728858Y-35613980D01*
X192300287Y-35042552D02*
X192300287Y-35709219D01*
X192538382Y-34661600D02*
X192776477Y-35375885D01*
X192776477Y-35375885D02*
X192157430Y-35375885D01*
X191586001Y-34709219D02*
X191490763Y-34709219D01*
X191490763Y-34709219D02*
X191395525Y-34756838D01*
X191395525Y-34756838D02*
X191347906Y-34804457D01*
X191347906Y-34804457D02*
X191300287Y-34899695D01*
X191300287Y-34899695D02*
X191252668Y-35090171D01*
X191252668Y-35090171D02*
X191252668Y-35328266D01*
X191252668Y-35328266D02*
X191300287Y-35518742D01*
X191300287Y-35518742D02*
X191347906Y-35613980D01*
X191347906Y-35613980D02*
X191395525Y-35661600D01*
X191395525Y-35661600D02*
X191490763Y-35709219D01*
X191490763Y-35709219D02*
X191586001Y-35709219D01*
X191586001Y-35709219D02*
X191681239Y-35661600D01*
X191681239Y-35661600D02*
X191728858Y-35613980D01*
X191728858Y-35613980D02*
X191776477Y-35518742D01*
X191776477Y-35518742D02*
X191824096Y-35328266D01*
X191824096Y-35328266D02*
X191824096Y-35090171D01*
X191824096Y-35090171D02*
X191776477Y-34899695D01*
X191776477Y-34899695D02*
X191728858Y-34804457D01*
X191728858Y-34804457D02*
X191681239Y-34756838D01*
X191681239Y-34756838D02*
X191586001Y-34709219D01*
X195764209Y-44231112D02*
X195811828Y-44373969D01*
X195811828Y-44373969D02*
X195859447Y-44421588D01*
X195859447Y-44421588D02*
X195954685Y-44469207D01*
X195954685Y-44469207D02*
X196097542Y-44469207D01*
X196097542Y-44469207D02*
X196192780Y-44421588D01*
X196192780Y-44421588D02*
X196240400Y-44373969D01*
X196240400Y-44373969D02*
X196288019Y-44278731D01*
X196288019Y-44278731D02*
X196288019Y-43897779D01*
X196288019Y-43897779D02*
X195288019Y-43897779D01*
X195288019Y-43897779D02*
X195288019Y-44231112D01*
X195288019Y-44231112D02*
X195335638Y-44326350D01*
X195335638Y-44326350D02*
X195383257Y-44373969D01*
X195383257Y-44373969D02*
X195478495Y-44421588D01*
X195478495Y-44421588D02*
X195573733Y-44421588D01*
X195573733Y-44421588D02*
X195668971Y-44373969D01*
X195668971Y-44373969D02*
X195716590Y-44326350D01*
X195716590Y-44326350D02*
X195764209Y-44231112D01*
X195764209Y-44231112D02*
X195764209Y-43897779D01*
X196288019Y-44897779D02*
X195621352Y-44897779D01*
X195811828Y-44897779D02*
X195716590Y-44945398D01*
X195716590Y-44945398D02*
X195668971Y-44993017D01*
X195668971Y-44993017D02*
X195621352Y-45088255D01*
X195621352Y-45088255D02*
X195621352Y-45183493D01*
X196240400Y-45897779D02*
X196288019Y-45802541D01*
X196288019Y-45802541D02*
X196288019Y-45612065D01*
X196288019Y-45612065D02*
X196240400Y-45516827D01*
X196240400Y-45516827D02*
X196145161Y-45469208D01*
X196145161Y-45469208D02*
X195764209Y-45469208D01*
X195764209Y-45469208D02*
X195668971Y-45516827D01*
X195668971Y-45516827D02*
X195621352Y-45612065D01*
X195621352Y-45612065D02*
X195621352Y-45802541D01*
X195621352Y-45802541D02*
X195668971Y-45897779D01*
X195668971Y-45897779D02*
X195764209Y-45945398D01*
X195764209Y-45945398D02*
X195859447Y-45945398D01*
X195859447Y-45945398D02*
X195954685Y-45469208D01*
X195621352Y-46373970D02*
X196288019Y-46373970D01*
X195716590Y-46373970D02*
X195668971Y-46421589D01*
X195668971Y-46421589D02*
X195621352Y-46516827D01*
X195621352Y-46516827D02*
X195621352Y-46659684D01*
X195621352Y-46659684D02*
X195668971Y-46754922D01*
X195668971Y-46754922D02*
X195764209Y-46802541D01*
X195764209Y-46802541D02*
X196288019Y-46802541D01*
X196288019Y-47707303D02*
X195288019Y-47707303D01*
X196240400Y-47707303D02*
X196288019Y-47612065D01*
X196288019Y-47612065D02*
X196288019Y-47421589D01*
X196288019Y-47421589D02*
X196240400Y-47326351D01*
X196240400Y-47326351D02*
X196192780Y-47278732D01*
X196192780Y-47278732D02*
X196097542Y-47231113D01*
X196097542Y-47231113D02*
X195811828Y-47231113D01*
X195811828Y-47231113D02*
X195716590Y-47278732D01*
X195716590Y-47278732D02*
X195668971Y-47326351D01*
X195668971Y-47326351D02*
X195621352Y-47421589D01*
X195621352Y-47421589D02*
X195621352Y-47612065D01*
X195621352Y-47612065D02*
X195668971Y-47707303D01*
X196288019Y-48612065D02*
X195764209Y-48612065D01*
X195764209Y-48612065D02*
X195668971Y-48564446D01*
X195668971Y-48564446D02*
X195621352Y-48469208D01*
X195621352Y-48469208D02*
X195621352Y-48278732D01*
X195621352Y-48278732D02*
X195668971Y-48183494D01*
X196240400Y-48612065D02*
X196288019Y-48516827D01*
X196288019Y-48516827D02*
X196288019Y-48278732D01*
X196288019Y-48278732D02*
X196240400Y-48183494D01*
X196240400Y-48183494D02*
X196145161Y-48135875D01*
X196145161Y-48135875D02*
X196049923Y-48135875D01*
X196049923Y-48135875D02*
X195954685Y-48183494D01*
X195954685Y-48183494D02*
X195907066Y-48278732D01*
X195907066Y-48278732D02*
X195907066Y-48516827D01*
X195907066Y-48516827D02*
X195859447Y-48612065D01*
X195621352Y-49088256D02*
X196288019Y-49088256D01*
X195716590Y-49088256D02*
X195668971Y-49135875D01*
X195668971Y-49135875D02*
X195621352Y-49231113D01*
X195621352Y-49231113D02*
X195621352Y-49373970D01*
X195621352Y-49373970D02*
X195668971Y-49469208D01*
X195668971Y-49469208D02*
X195764209Y-49516827D01*
X195764209Y-49516827D02*
X196288019Y-49516827D01*
X196288019Y-51231113D02*
X196288019Y-50754923D01*
X196288019Y-50754923D02*
X195288019Y-50754923D01*
X196240400Y-51945399D02*
X196288019Y-51850161D01*
X196288019Y-51850161D02*
X196288019Y-51659685D01*
X196288019Y-51659685D02*
X196240400Y-51564447D01*
X196240400Y-51564447D02*
X196145161Y-51516828D01*
X196145161Y-51516828D02*
X195764209Y-51516828D01*
X195764209Y-51516828D02*
X195668971Y-51564447D01*
X195668971Y-51564447D02*
X195621352Y-51659685D01*
X195621352Y-51659685D02*
X195621352Y-51850161D01*
X195621352Y-51850161D02*
X195668971Y-51945399D01*
X195668971Y-51945399D02*
X195764209Y-51993018D01*
X195764209Y-51993018D02*
X195859447Y-51993018D01*
X195859447Y-51993018D02*
X195954685Y-51516828D01*
X196240400Y-52802542D02*
X196288019Y-52707304D01*
X196288019Y-52707304D02*
X196288019Y-52516828D01*
X196288019Y-52516828D02*
X196240400Y-52421590D01*
X196240400Y-52421590D02*
X196145161Y-52373971D01*
X196145161Y-52373971D02*
X195764209Y-52373971D01*
X195764209Y-52373971D02*
X195668971Y-52421590D01*
X195668971Y-52421590D02*
X195621352Y-52516828D01*
X195621352Y-52516828D02*
X195621352Y-52707304D01*
X195621352Y-52707304D02*
X195668971Y-52802542D01*
X195668971Y-52802542D02*
X195764209Y-52850161D01*
X195764209Y-52850161D02*
X195859447Y-52850161D01*
X195859447Y-52850161D02*
X195954685Y-52373971D01*
X188801380Y-41675207D02*
X188849000Y-41627588D01*
X188849000Y-41627588D02*
X188896619Y-41484731D01*
X188896619Y-41484731D02*
X188896619Y-41389493D01*
X188896619Y-41389493D02*
X188849000Y-41246636D01*
X188849000Y-41246636D02*
X188753761Y-41151398D01*
X188753761Y-41151398D02*
X188658523Y-41103779D01*
X188658523Y-41103779D02*
X188468047Y-41056160D01*
X188468047Y-41056160D02*
X188325190Y-41056160D01*
X188325190Y-41056160D02*
X188134714Y-41103779D01*
X188134714Y-41103779D02*
X188039476Y-41151398D01*
X188039476Y-41151398D02*
X187944238Y-41246636D01*
X187944238Y-41246636D02*
X187896619Y-41389493D01*
X187896619Y-41389493D02*
X187896619Y-41484731D01*
X187896619Y-41484731D02*
X187944238Y-41627588D01*
X187944238Y-41627588D02*
X187991857Y-41675207D01*
X188610904Y-42056160D02*
X188610904Y-42532350D01*
X188896619Y-41960922D02*
X187896619Y-42294255D01*
X187896619Y-42294255D02*
X188896619Y-42627588D01*
X188896619Y-42960922D02*
X187896619Y-42960922D01*
X187896619Y-42960922D02*
X188896619Y-43532350D01*
X188896619Y-43532350D02*
X187896619Y-43532350D01*
X188849000Y-43960922D02*
X188896619Y-44056160D01*
X188896619Y-44056160D02*
X188896619Y-44246636D01*
X188896619Y-44246636D02*
X188849000Y-44341874D01*
X188849000Y-44341874D02*
X188753761Y-44389493D01*
X188753761Y-44389493D02*
X188706142Y-44389493D01*
X188706142Y-44389493D02*
X188610904Y-44341874D01*
X188610904Y-44341874D02*
X188563285Y-44246636D01*
X188563285Y-44246636D02*
X188563285Y-44103779D01*
X188563285Y-44103779D02*
X188515666Y-44008541D01*
X188515666Y-44008541D02*
X188420428Y-43960922D01*
X188420428Y-43960922D02*
X188372809Y-43960922D01*
X188372809Y-43960922D02*
X188277571Y-44008541D01*
X188277571Y-44008541D02*
X188229952Y-44103779D01*
X188229952Y-44103779D02*
X188229952Y-44246636D01*
X188229952Y-44246636D02*
X188277571Y-44341874D01*
X188229952Y-44722827D02*
X188896619Y-44913303D01*
X188896619Y-44913303D02*
X188420428Y-45103779D01*
X188420428Y-45103779D02*
X188896619Y-45294255D01*
X188896619Y-45294255D02*
X188229952Y-45484731D01*
X188896619Y-45865684D02*
X188229952Y-45865684D01*
X187896619Y-45865684D02*
X187944238Y-45818065D01*
X187944238Y-45818065D02*
X187991857Y-45865684D01*
X187991857Y-45865684D02*
X187944238Y-45913303D01*
X187944238Y-45913303D02*
X187896619Y-45865684D01*
X187896619Y-45865684D02*
X187991857Y-45865684D01*
X188229952Y-46199017D02*
X188229952Y-46579969D01*
X187896619Y-46341874D02*
X188753761Y-46341874D01*
X188753761Y-46341874D02*
X188849000Y-46389493D01*
X188849000Y-46389493D02*
X188896619Y-46484731D01*
X188896619Y-46484731D02*
X188896619Y-46579969D01*
X188849000Y-47341874D02*
X188896619Y-47246636D01*
X188896619Y-47246636D02*
X188896619Y-47056160D01*
X188896619Y-47056160D02*
X188849000Y-46960922D01*
X188849000Y-46960922D02*
X188801380Y-46913303D01*
X188801380Y-46913303D02*
X188706142Y-46865684D01*
X188706142Y-46865684D02*
X188420428Y-46865684D01*
X188420428Y-46865684D02*
X188325190Y-46913303D01*
X188325190Y-46913303D02*
X188277571Y-46960922D01*
X188277571Y-46960922D02*
X188229952Y-47056160D01*
X188229952Y-47056160D02*
X188229952Y-47246636D01*
X188229952Y-47246636D02*
X188277571Y-47341874D01*
X188896619Y-47770446D02*
X187896619Y-47770446D01*
X188896619Y-48199017D02*
X188372809Y-48199017D01*
X188372809Y-48199017D02*
X188277571Y-48151398D01*
X188277571Y-48151398D02*
X188229952Y-48056160D01*
X188229952Y-48056160D02*
X188229952Y-47913303D01*
X188229952Y-47913303D02*
X188277571Y-47818065D01*
X188277571Y-47818065D02*
X188325190Y-47770446D01*
X187896619Y-49294256D02*
X188896619Y-49627589D01*
X188896619Y-49627589D02*
X187896619Y-49960922D01*
X188896619Y-50818065D02*
X188896619Y-50246637D01*
X188896619Y-50532351D02*
X187896619Y-50532351D01*
X187896619Y-50532351D02*
X188039476Y-50437113D01*
X188039476Y-50437113D02*
X188134714Y-50341875D01*
X188134714Y-50341875D02*
X188182333Y-50246637D01*
X188801380Y-51246637D02*
X188849000Y-51294256D01*
X188849000Y-51294256D02*
X188896619Y-51246637D01*
X188896619Y-51246637D02*
X188849000Y-51199018D01*
X188849000Y-51199018D02*
X188801380Y-51246637D01*
X188801380Y-51246637D02*
X188896619Y-51246637D01*
X187896619Y-51913303D02*
X187896619Y-52008541D01*
X187896619Y-52008541D02*
X187944238Y-52103779D01*
X187944238Y-52103779D02*
X187991857Y-52151398D01*
X187991857Y-52151398D02*
X188087095Y-52199017D01*
X188087095Y-52199017D02*
X188277571Y-52246636D01*
X188277571Y-52246636D02*
X188515666Y-52246636D01*
X188515666Y-52246636D02*
X188706142Y-52199017D01*
X188706142Y-52199017D02*
X188801380Y-52151398D01*
X188801380Y-52151398D02*
X188849000Y-52103779D01*
X188849000Y-52103779D02*
X188896619Y-52008541D01*
X188896619Y-52008541D02*
X188896619Y-51913303D01*
X188896619Y-51913303D02*
X188849000Y-51818065D01*
X188849000Y-51818065D02*
X188801380Y-51770446D01*
X188801380Y-51770446D02*
X188706142Y-51722827D01*
X188706142Y-51722827D02*
X188515666Y-51675208D01*
X188515666Y-51675208D02*
X188277571Y-51675208D01*
X188277571Y-51675208D02*
X188087095Y-51722827D01*
X188087095Y-51722827D02*
X187991857Y-51770446D01*
X187991857Y-51770446D02*
X187944238Y-51818065D01*
X187944238Y-51818065D02*
X187896619Y-51913303D01*
M02*
