%TF.GenerationSoftware,KiCad,Pcbnew,7.0.9*%
%TF.CreationDate,2024-01-10T19:06:39-08:00*%
%TF.ProjectId,CANswitch,43414e73-7769-4746-9368-2e6b69636164,rev?*%
%TF.SameCoordinates,Original*%
%TF.FileFunction,Copper,L1,Top*%
%TF.FilePolarity,Positive*%
%FSLAX46Y46*%
G04 Gerber Fmt 4.6, Leading zero omitted, Abs format (unit mm)*
G04 Created by KiCad (PCBNEW 7.0.9) date 2024-01-10 19:06:39*
%MOMM*%
%LPD*%
G01*
G04 APERTURE LIST*
%TA.AperFunction,ComponentPad*%
%ADD10C,1.400000*%
%TD*%
%TA.AperFunction,ComponentPad*%
%ADD11O,1.400000X1.400000*%
%TD*%
%TA.AperFunction,ComponentPad*%
%ADD12C,1.000000*%
%TD*%
%TA.AperFunction,ComponentPad*%
%ADD13C,2.000000*%
%TD*%
%TA.AperFunction,SMDPad,CuDef*%
%ADD14R,3.000000X4.000000*%
%TD*%
%TA.AperFunction,ViaPad*%
%ADD15C,0.800000*%
%TD*%
%TA.AperFunction,Conductor*%
%ADD16C,0.508000*%
%TD*%
G04 APERTURE END LIST*
D10*
%TO.P,R2,1*%
%TO.N,Net-(SW1B-C)*%
X195580000Y-58674000D03*
D11*
%TO.P,R2,2*%
%TO.N,Net-(J2-Pin_1)*%
X187960000Y-58674000D03*
%TD*%
D12*
%TO.P,SW1,1,A*%
%TO.N,Net-(SW1A-A)*%
X192738000Y-42990000D03*
%TO.P,SW1,2,B*%
%TO.N,Net-(J1-Pin_2)*%
X192738000Y-44990000D03*
%TO.P,SW1,3,C*%
%TO.N,Net-(SW1A-C)*%
X192738000Y-46990000D03*
%TO.P,SW1,4,A*%
%TO.N,Net-(SW1A-A)*%
X192738000Y-48990000D03*
%TO.P,SW1,5,B*%
%TO.N,Net-(J2-Pin_2)*%
X192738000Y-50990000D03*
%TO.P,SW1,6,C*%
%TO.N,Net-(SW1B-C)*%
X192738000Y-52990000D03*
%TO.P,SW1,7,A*%
%TO.N,Net-(J1-Pin_1)*%
X190238000Y-42990000D03*
%TO.P,SW1,8,B*%
%TO.N,Net-(J2-Pin_1)*%
X190238000Y-44990000D03*
%TO.P,SW1,9,C*%
%TO.N,unconnected-(SW1C-C-Pad9)*%
X190238000Y-46990000D03*
%TO.P,SW1,10,A*%
%TO.N,unconnected-(SW1D-A-Pad10)*%
X190238000Y-48990000D03*
%TO.P,SW1,11,B*%
%TO.N,unconnected-(SW1D-B-Pad11)*%
X190238000Y-50990000D03*
%TO.P,SW1,12,C*%
%TO.N,unconnected-(SW1D-C-Pad12)*%
X190238000Y-52990000D03*
D13*
%TO.P,SW1,13*%
%TO.N,N/C*%
X194288000Y-41390000D03*
%TO.P,SW1,14*%
X188688000Y-54590000D03*
%TD*%
D14*
%TO.P,J2,1,Pin_1*%
%TO.N,Net-(J2-Pin_1)*%
X189230000Y-33020000D03*
%TO.P,J2,2,Pin_2*%
%TO.N,Net-(J2-Pin_2)*%
X194310000Y-33020000D03*
%TD*%
D10*
%TO.P,R1,1*%
%TO.N,Net-(SW1A-C)*%
X195580000Y-38100000D03*
D11*
%TO.P,R1,2*%
%TO.N,Net-(J1-Pin_1)*%
X187960000Y-38100000D03*
%TD*%
D14*
%TO.P,J1,1,Pin_1*%
%TO.N,Net-(J1-Pin_1)*%
X194310000Y-63754000D03*
%TO.P,J1,2,Pin_2*%
%TO.N,Net-(J1-Pin_2)*%
X189230000Y-63754000D03*
%TD*%
D15*
%TO.N,Net-(J1-Pin_1)*%
X194863800Y-60956000D03*
X193548000Y-59182000D03*
%TD*%
D16*
%TO.N,Net-(J2-Pin_2)*%
X196088000Y-40640000D02*
X194310000Y-38862000D01*
X194310000Y-38862000D02*
X194310000Y-33020000D01*
X196088000Y-47640000D02*
X196088000Y-40640000D01*
X192738000Y-50990000D02*
X196088000Y-47640000D01*
%TO.N,Net-(J1-Pin_2)*%
X191516000Y-46212000D02*
X192738000Y-44990000D01*
X191516000Y-61468000D02*
X191516000Y-46212000D01*
X189230000Y-63754000D02*
X191516000Y-61468000D01*
%TO.N,Net-(J2-Pin_1)*%
X191262000Y-43966000D02*
X191262000Y-35052000D01*
X187198000Y-48030000D02*
X187198000Y-57912000D01*
X187198000Y-57912000D02*
X187960000Y-58674000D01*
X190238000Y-44990000D02*
X191262000Y-43966000D01*
X191262000Y-35052000D02*
X189230000Y-33020000D01*
X190238000Y-44990000D02*
X187198000Y-48030000D01*
%TO.N,Net-(J1-Pin_1)*%
X190238000Y-40378000D02*
X187960000Y-38100000D01*
X194310000Y-63754000D02*
X194310000Y-59944000D01*
X194310000Y-59944000D02*
X193548000Y-59182000D01*
X190238000Y-42990000D02*
X190238000Y-40378000D01*
%TO.N,Net-(SW1B-C)*%
X195580000Y-58674000D02*
X195580000Y-55832000D01*
X195580000Y-55832000D02*
X192738000Y-52990000D01*
%TO.N,Net-(SW1A-A)*%
X192738000Y-42990000D02*
X194056000Y-44308000D01*
X194056000Y-47672000D02*
X192738000Y-48990000D01*
X194056000Y-44308000D02*
X194056000Y-47672000D01*
%TD*%
M02*
